<svg width="16" height="14" viewBox="0 0 16 14" fill="none" xmlns="http://www.w3.org/2000/svg">
<path d="M14.1538 1.82611H12.0231L10.9769 0.273938C10.9213 0.189072 10.8448 0.119475 10.7548 0.0715936C10.6647 0.0237124 10.5638 -0.000903874 10.4615 2.53651e-05H5.53846C5.43619 -0.000903874 5.33534 0.0237124 5.24525 0.0715936C5.15516 0.119475 5.07874 0.189072 5.02308 0.273938L3.97692 1.82611H1.84615C1.35715 1.82811 0.888746 2.02115 0.542963 2.36317C0.19718 2.70519 0.0020249 3.1685 0 3.65219V12.1739C0.0020249 12.6576 0.19718 13.1209 0.542963 13.4629C0.888746 13.805 1.35715 13.998 1.84615 14H14.1538C14.6429 13.998 15.1113 13.805 15.457 13.4629C15.8028 13.1209 15.998 12.6576 16 12.1739V3.65219C15.998 3.1685 15.8028 2.70519 15.457 2.36317C15.1113 2.02115 14.6429 1.82811 14.1538 1.82611ZM10.7692 7.60871C10.7692 8.15046 10.6068 8.68004 10.3025 9.13048C9.99824 9.58093 9.56575 9.93201 9.05974 10.1393C8.55373 10.3466 7.99693 10.4009 7.45975 10.2952C6.92257 10.1895 6.42914 9.92863 6.04186 9.54556C5.65457 9.16249 5.39083 8.67442 5.28398 8.14308C5.17713 7.61175 5.23197 7.061 5.44156 6.56049C5.65116 6.05998 6.0061 5.63219 6.4615 5.33121C6.9169 5.03023 7.4523 4.86958 8 4.86958C8.73445 4.86958 9.43881 5.15817 9.95814 5.67185C10.4775 6.18554 10.7692 6.88225 10.7692 7.60871Z" fill="white"/>
</svg>
