<svg width="109" height="289" viewBox="0 0 109 289" fill="none" xmlns="http://www.w3.org/2000/svg">
<path d="M107.669 80.9986C107.669 81.9935 107.669 82.9967 107.585 84.0751C107.585 84.6185 107.501 85.187 107.434 85.8056C107.351 86.5154 107.223 87.219 107.05 87.9123C106.919 88.4279 106.751 88.9336 106.548 89.4255C106.151 90.393 105.585 91.2819 104.876 92.0506C104.084 92.9088 103.106 93.5749 102.017 93.9984C101.652 94.1351 101.278 94.2468 100.897 94.3328C100.46 94.4297 100.015 94.4856 99.5677 94.5C99.1865 94.5297 98.8036 94.5297 98.4224 94.5C98.1129 94.4702 97.8057 94.42 97.5028 94.3496C96.7359 94.1789 95.998 93.8973 95.3125 93.5136C94.9373 93.3045 94.577 93.0698 94.234 92.8113C93.8066 92.4877 93.399 92.1388 93.0135 91.7663C92.6958 91.4653 92.445 91.2062 92.1775 90.9303C91.7177 90.4203 91.3415 89.9606 90.9736 89.5258C89.9203 88.205 89.0341 86.976 88.1981 85.7638C87.9557 85.3709 87.6965 84.9947 87.4374 84.6101C85.3641 81.4083 83.458 78.2816 81.6606 75.0965C78.0407 68.7345 74.7218 62.3642 71.6704 55.7431L85.5731 48.9464C88.7499 54.9823 91.8598 61.1771 94.9697 67.2381C94.9697 66.4773 95.0282 65.7082 95.0533 64.9474C95.2372 57.8832 95.3543 50.7354 95.6051 43.6127L102.853 42.9439C104.35 50.0666 105.487 57.1559 106.381 64.3957C106.841 68.0156 107.167 71.6438 107.434 75.3556C107.593 77.1614 107.652 79.0424 107.669 80.9986Z" fill="#263238"/>
<path opacity="0.2" d="M92.2026 90.8718C91.7428 90.3618 91.3666 89.902 90.9987 89.4673C89.9454 88.1464 89.0592 86.9175 88.2232 85.7053L86.8354 62.1218L92.2026 90.8718Z" fill="black"/>
<path d="M95.6721 44.4989L93.7493 38.9813C93.7493 38.9813 92.6792 36.3562 93.4902 34.6926C95.7724 29.9692 101.014 28.2972 101.491 29.5763C101.583 29.7936 104.609 36.3813 104.609 36.3813L102.828 42.9941C100.646 44.9503 98.2888 45.6191 95.6721 44.4989Z" fill="#B55B52"/>
<path d="M102.653 41.6565L95.8308 43.3285C94.6687 43.6127 93.8244 42.5426 94.1588 41.1967L97.9877 24.8779C98.0761 24.4497 98.2779 24.0531 98.572 23.7296C98.8662 23.4061 99.2418 23.1675 99.6597 23.0387L106.481 21.3667C107.643 21.0825 108.488 22.1442 108.153 23.4985L104.333 39.834C104.241 40.2601 104.037 40.6539 103.741 40.9744C103.446 41.2949 103.07 41.5304 102.653 41.6565Z" fill="black"/>
<g opacity="0.2">
<path d="M102.653 41.6565L95.8308 43.3285C94.6687 43.6127 93.8244 42.5426 94.1588 41.1967L97.9877 24.8779C98.0761 24.4497 98.2779 24.0531 98.572 23.7296C98.8662 23.4061 99.2418 23.1675 99.6597 23.0387L106.481 21.3667C107.643 21.0825 108.488 22.1442 108.153 23.4985L104.333 39.834C104.241 40.2601 104.037 40.6539 103.741 40.9744C103.446 41.2949 103.07 41.5304 102.653 41.6565Z" fill="white"/>
</g>
<path d="M103.338 41.4893L96.5163 43.1613C95.3543 43.4455 94.5099 42.3838 94.8443 41.0295L98.6565 24.694C98.7471 24.2677 98.9498 23.8733 99.2437 23.5514C99.5376 23.2296 99.9121 22.992 100.328 22.8632L107.15 21.1912C108.304 20.8986 109.157 21.9687 108.822 23.323L105.01 39.6584C104.919 40.0848 104.717 40.4792 104.423 40.801C104.129 41.1229 103.754 41.3604 103.338 41.4893Z" fill="black"/>
<g opacity="0.2">
<path d="M103.982 31.6663C103.935 32.1265 103.765 32.5656 103.49 32.9377C103.215 33.3098 102.845 33.6011 102.419 33.7814C101.691 33.9569 101.223 33.3049 101.365 32.3184C101.415 31.8578 101.587 31.4188 101.863 31.047C102.14 30.6751 102.51 30.3838 102.937 30.2033C103.656 30.0277 104.124 30.6798 103.982 31.6663Z" fill="white"/>
</g>
<path d="M108.22 26.6085C108.22 26.6085 103.923 27.6785 103.923 28.665C103.923 29.8438 105.829 29.4341 107.267 29.3338C108.856 29.2251 108.856 26.6419 108.22 26.6085Z" fill="#B55B52"/>
<path d="M107.334 28.9242C107.887 29.7645 108.102 30.7828 107.936 31.775C107.652 33.447 105.763 38.463 104.041 35.2778C101.432 30.4457 106.365 29.0663 107.334 28.9242Z" fill="#B55B52"/>
<path d="M101.106 25.1455C101.078 25.4046 100.981 25.6515 100.826 25.8603C100.67 26.0691 100.461 26.2322 100.22 26.3326C99.8104 26.4329 99.5512 26.0651 99.6348 25.4966C99.6676 25.2498 99.7643 25.0158 99.9154 24.8179C100.066 24.6199 100.266 24.4648 100.496 24.368C100.922 24.2259 101.181 24.5937 101.106 25.1455Z" fill="black"/>
<g opacity="0.2">
<path d="M101.106 25.1455C101.078 25.4046 100.981 25.6515 100.826 25.8603C100.67 26.0691 100.461 26.2322 100.22 26.3326C99.8104 26.4329 99.5512 26.0651 99.6348 25.4966C99.6676 25.2498 99.7643 25.0158 99.9154 24.8179C100.066 24.6199 100.266 24.4648 100.496 24.368C100.922 24.2259 101.181 24.5937 101.106 25.1455Z" fill="white"/>
</g>
<path d="M81.1841 273.362L82.9397 282.274H87.6547L88.2817 273.362H81.1841Z" fill="#B55B52"/>
<path d="M87.0361 281.137C87.2715 280.839 87.5859 280.612 87.9435 280.484C88.3012 280.355 88.6877 280.33 89.0592 280.41C90.1878 280.794 91.6759 282.65 91.6759 282.65C91.6759 282.65 97.8205 284.615 99.4758 284.723C101.131 284.832 102.586 285.76 103.213 288.97H83.0901C83.0901 288.97 82.2541 281.714 82.1789 280.468C82.1037 279.223 84.0265 280.778 84.0265 280.778L87.0361 281.137Z" fill="#9C90C2"/>
<path d="M102.611 288.017L98.9911 287.976L83.1071 287.808C83.0672 287.808 83.029 287.792 83.0007 287.764C82.9725 287.736 82.9567 287.698 82.9567 287.658C82.9567 287.618 82.9725 287.58 83.0007 287.551C83.029 287.523 83.0672 287.507 83.1071 287.507H84.1856C84.4992 286.718 84.5009 285.84 84.1904 285.049C83.8799 284.259 83.2804 283.617 82.5136 283.252C82.338 283.16 82.5136 282.884 82.6724 282.985C83.4875 283.384 84.1233 284.074 84.4545 284.919C84.7857 285.764 84.7882 286.702 84.4615 287.549H86.7019L102.544 287.716C102.58 287.717 102.614 287.73 102.641 287.752C102.668 287.775 102.688 287.806 102.695 287.841C102.703 287.875 102.699 287.911 102.684 287.943C102.668 287.976 102.643 288.001 102.611 288.017Z" fill="black"/>
<path d="M90.9654 283.913C91.1079 283.677 91.2988 283.474 91.5255 283.317C91.7522 283.161 92.0096 283.054 92.2806 283.004C92.5516 282.954 92.8301 282.963 93.0977 283.029C93.3652 283.094 93.6158 283.216 93.8328 283.386C94 283.511 94.1505 283.235 93.9917 283.118C93.7386 282.928 93.4484 282.792 93.1397 282.72C92.8309 282.649 92.5106 282.643 92.1994 282.702C91.8882 282.762 91.593 282.887 91.3329 283.068C91.0728 283.249 90.8536 283.483 90.6895 283.754C90.5724 283.913 90.8483 284.071 90.9654 283.913Z" fill="white"/>
<path d="M92.6962 284.431C92.8403 284.195 93.0325 283.993 93.2603 283.837C93.4881 283.682 93.7463 283.576 94.0179 283.527C94.2895 283.478 94.5684 283.487 94.8363 283.553C95.1041 283.62 95.3549 283.742 95.5721 283.913C95.7309 284.03 95.8814 283.762 95.7309 283.645C95.4779 283.445 95.185 283.302 94.872 283.225C94.559 283.148 94.2332 283.139 93.9163 283.198C93.5995 283.258 93.2991 283.384 93.0353 283.569C92.7714 283.755 92.5504 283.994 92.3869 284.272C92.2699 284.439 92.5374 284.598 92.6544 284.431H92.6962Z" fill="white"/>
<path d="M94.485 284.958C94.6281 284.721 94.8199 284.518 95.0476 284.361C95.2754 284.205 95.5339 284.098 95.8059 284.049C96.0779 284 96.3572 284.01 96.6253 284.077C96.8934 284.144 97.1441 284.268 97.3608 284.439C97.5197 284.556 97.6785 284.289 97.5197 284.163C97.2666 283.972 96.9764 283.837 96.6677 283.765C96.3589 283.694 96.0386 283.687 95.7274 283.747C95.4162 283.807 95.121 283.932 94.8609 284.113C94.6008 284.294 94.3816 284.528 94.2175 284.799C94.1004 284.966 94.3679 285.116 94.485 284.958Z" fill="white"/>
<path d="M39.0332 273.429L40.0113 282.274H44.7264L46.1308 273.429H39.0332Z" fill="#B55B52"/>
<path d="M44.0995 281.137C44.3369 280.839 44.6528 280.613 45.0117 280.484C45.3706 280.356 45.7582 280.33 46.131 280.41C47.2596 280.794 48.7476 282.65 48.7476 282.65C48.7476 282.65 54.8922 284.615 56.5475 284.723C58.2028 284.832 59.6574 285.76 60.2844 288.97H40.1619C40.1619 288.97 39.3259 281.714 39.2507 280.468C39.1754 279.223 41.0982 280.778 41.0982 280.778L44.0995 281.137Z" fill="#9C90C2"/>
<path d="M59.6823 288.017L56.0624 287.976L40.1784 287.808C40.1385 287.808 40.1002 287.792 40.072 287.764C40.0438 287.736 40.0279 287.698 40.0279 287.658C40.0279 287.618 40.0438 287.58 40.072 287.551C40.1002 287.523 40.1385 287.507 40.1784 287.507H41.2569C41.5704 286.718 41.5722 285.84 41.2617 285.049C40.9512 284.259 40.3517 283.617 39.5849 283.252C39.4093 283.16 39.5849 282.884 39.7437 282.985C40.5588 283.384 41.1946 284.074 41.5258 284.919C41.857 285.764 41.8595 286.702 41.5327 287.549H43.7649L59.6489 287.716C59.6819 287.723 59.7121 287.74 59.7349 287.765C59.7577 287.79 59.772 287.821 59.7757 287.855C59.7795 287.888 59.7724 287.922 59.7556 287.951C59.7388 287.98 59.7131 288.004 59.6823 288.017Z" fill="black"/>
<path d="M48.0286 283.913C48.172 283.677 48.3637 283.473 48.5911 283.317C48.8186 283.16 49.0766 283.053 49.3483 283.004C49.62 282.954 49.8991 282.962 50.1673 283.028C50.4355 283.094 50.6867 283.216 50.9045 283.386C51.0717 283.511 51.2221 283.235 51.0633 283.118C50.8092 282.92 50.5159 282.779 50.2028 282.703C49.8896 282.627 49.564 282.619 49.2475 282.679C48.9311 282.74 48.6311 282.867 48.3675 283.052C48.104 283.237 47.883 283.476 47.7193 283.754C47.6023 283.913 47.8781 284.071 47.9868 283.913H48.0286Z" fill="white"/>
<path d="M49.7672 284.431C49.9113 284.195 50.1035 283.993 50.3313 283.837C50.5591 283.681 50.8173 283.576 51.0889 283.527C51.3605 283.478 51.6394 283.487 51.9073 283.553C52.1751 283.62 52.4259 283.742 52.643 283.913C52.8019 284.03 52.9524 283.762 52.7935 283.645C52.5422 283.453 52.2531 283.316 51.9451 283.243C51.6372 283.17 51.3173 283.163 51.0064 283.222C50.6955 283.281 50.4006 283.405 50.1409 283.586C49.8813 283.767 49.6628 284.001 49.4997 284.272C49.3826 284.439 49.6502 284.598 49.7672 284.431Z" fill="white"/>
<path d="M51.5566 284.958C51.6997 284.721 51.8915 284.518 52.1192 284.361C52.347 284.205 52.6055 284.098 52.8775 284.049C53.1495 284 53.4288 284.01 53.6969 284.077C53.965 284.144 54.2157 284.268 54.4324 284.439C54.5912 284.556 54.7501 284.289 54.5912 284.163C54.3372 283.965 54.0438 283.824 53.7307 283.748C53.4176 283.672 53.092 283.664 52.7755 283.724C52.459 283.785 52.159 283.911 51.8955 284.097C51.632 284.282 51.411 284.521 51.2472 284.799C51.1302 284.966 51.3977 285.116 51.5148 284.958H51.5566Z" fill="white"/>
<path d="M79.5959 273.672H89.9958C90.8903 260.296 93.4401 215.929 91.4253 193.984C92.8716 163.529 88.2151 123.1 88.2151 123.1H55.3018C55.3018 123.1 57.7178 150.153 68.5524 193.541C68.4771 227.917 76.8622 262.285 79.5959 273.672Z" fill="#9C90C2"/>
<path opacity="0.2" d="M66.7714 186.251C72.7238 161.94 67.4988 130.406 67.4988 130.406L62.3657 166.421L66.7714 186.251Z" fill="black"/>
<path d="M78.3755 273.412L79.1363 277.367L91.0576 277.317L91.066 273.362L78.3755 273.412Z" fill="#263238"/>
<path d="M37.5534 274.056H47.9448C51.6483 260.287 60.6688 215.929 61.8559 193.984C67.7497 163.529 68.987 123.1 68.987 123.1H36.0569C36.0569 123.1 34.527 150.153 39.0247 193.541C33.9418 227.917 37.3193 262.285 37.5534 274.056Z" fill="#9C90C2"/>
<path d="M36.6422 273.404L36.6255 277.317L48.6388 277.325L49.2658 273.404H36.6422Z" fill="#263238"/>
<path d="M92.5372 128.032C69.7061 136.818 32.4874 130.448 32.4874 130.448C32.9388 119.287 33.3234 97.1585 33.1645 78.7749C33.1645 75.7151 33.0893 72.7557 33.0308 69.9718C32.9304 64.9558 32.7549 60.4497 32.5208 56.9302C32.1028 50.6602 35.5053 44.8333 41.7168 43.7966C43.5978 43.479 45.6293 43.2031 47.7444 42.9606L49.2742 42.8101C55.3161 42.2199 61.3883 41.9966 67.4572 42.1413H68.2932H68.7698H69.5222C72.1472 42.2417 74.6218 42.4423 76.8455 42.7349C81.8615 43.387 86.3843 47.3747 86.4762 52.466C86.7103 66.0008 90.0627 122.297 92.5372 128.032Z" fill="#263238"/>
<path d="M62.3825 50.7438C55.1177 49.6068 51.364 45.1175 49.2573 42.852C55.2992 42.2617 61.3714 42.0384 67.4403 42.1832C73.1419 48.6789 69.129 51.8055 62.3825 50.7438Z" fill="#263238"/>
<path opacity="0.9" d="M62.3825 50.7438C55.1177 49.6068 51.364 45.1175 49.2573 42.852C55.2992 42.2617 61.3714 42.0384 67.4403 42.1832C73.1419 48.6789 69.129 51.8055 62.3825 50.7438Z" fill="white"/>
<path d="M63.0432 6.37727C61.1834 6.12276 59.2913 6.25261 57.4837 6.75878C55.6762 7.26494 53.9918 8.13666 52.5347 9.31998C50.6453 10.9084 49.1907 13.0235 49.7675 15.5816C51.1971 21.5339 55.0677 31.173 55.0677 31.173L73.2424 17.5964C73.2424 17.5964 73.4179 11.828 70.5588 8.92706C69.0707 7.44734 65.8187 6.72839 63.0432 6.37727Z" fill="black"/>
<path d="M51.5064 10.3232C51.1529 9.87889 50.6546 9.57276 50.0985 9.45818C49.5424 9.3436 48.9637 9.42783 48.4634 9.6962C46.7412 10.691 48.8897 11.3682 48.8897 11.3682C48.8897 11.3682 46.7746 13.3662 47.7946 14.2273C48.8145 15.0884 50.8209 12.7225 50.8209 12.7225L51.5064 10.3232Z" fill="black"/>
<path d="M65.526 36.699C65.5248 36.7241 65.5248 36.7492 65.526 36.7743L64.991 40.3607C64.9912 41.0701 65.0556 41.778 65.1832 42.4758C65.294 43.0423 65.442 43.6008 65.6263 44.1478C66.5125 45.1092 67.1395 47.4918 64.4141 47.7677C60.9782 48.1606 54.1146 44.1478 53.7217 42.6513C54.8001 37.7774 55.5274 31.7833 54.7834 27.3525L59.1724 31.1731L65.526 36.699Z" fill="#B55B52"/>
<g opacity="0.2">
<path d="M65.5094 36.7826L64.9744 40.3691C62.7088 39.625 60.2259 37.7524 59.4568 35.5203C58.9218 33.9068 59.4986 32.2766 60.1507 32.1177L65.5094 36.7826Z" fill="black"/>
</g>
<path d="M73.4179 28.548C73.3008 29.3255 73.1504 30.103 72.9915 30.8637C71.5285 37.6102 63.5698 39.0732 58.0522 34.8264C57.5486 34.4436 57.0788 34.0185 56.6477 33.5556C53.0111 29.7351 53.4626 26.4413 53.1449 19.1012C53.0501 17.3972 53.3916 15.6971 54.1371 14.1619C54.8825 12.6266 56.0074 11.307 57.4051 10.3277C58.8029 9.34841 60.4274 8.74192 62.1249 8.56559C63.8224 8.38926 65.5369 8.64892 67.1061 9.32C73.5767 12.1122 74.6384 20.7147 73.4179 28.548Z" fill="#B55B52"/>
<path d="M73.4177 28.548C73.3007 29.3255 73.1502 30.103 72.9914 30.8637C71.5284 37.6102 63.5697 39.0732 58.0521 34.8263C55.7029 32.3183 54.9087 29.3924 56.7646 24.5519L58.4366 25.6638C58.4366 25.6638 58.7877 26.6419 61.3208 27.0599C63.8539 27.4779 65.0076 25.8895 68.7111 26.876C68.7111 26.876 70.893 25.7558 72.4731 26.4998C73.6184 27.0265 73.3676 27.6367 73.4177 28.548Z" fill="black"/>
<path d="M68.4438 29.9608C68.3824 30.1711 68.2625 30.3596 68.0979 30.5042C67.9334 30.6488 67.7311 30.7435 67.5147 30.7774C67.2983 30.8113 67.0768 30.7829 66.8759 30.6955C66.6751 30.6081 66.5033 30.4653 66.3806 30.2838C66.2579 30.1024 66.1894 29.8897 66.1831 29.6708C66.1768 29.4519 66.233 29.2356 66.345 29.0474C66.4571 28.8592 66.6204 28.7068 66.8159 28.608C67.0114 28.5092 67.231 28.4681 67.4489 28.4895C67.7751 28.5542 68.0626 28.7451 68.2489 29.0206C68.4352 29.2961 68.5052 29.634 68.4438 29.9608Z" fill="white"/>
<path d="M67.5744 8.54252C63.8458 6.59464 56.8234 6.87052 54.3823 10.6242C51.9412 14.3778 53.12 19.7449 53.12 19.7449C53.7258 19.7239 54.3245 19.8808 54.8421 20.1964C55.1612 20.3914 55.4441 20.6403 55.6781 20.932C56.4087 21.6528 57.2569 22.2436 58.1861 22.6793C57.8434 20.6562 57.3501 16.752 58.7797 16.6601C60.6858 16.543 58.2697 13.5418 59.3565 12.9482C61.9147 11.5521 69.2046 10.666 72.5152 14.754C72.5319 14.754 71.303 10.4988 67.5744 8.54252Z" fill="black"/>
<path d="M60.8276 6.61971C60.8276 6.61971 64.8906 2.94968 67.641 3.85256C70.149 4.68856 71.7291 3.18375 72.4062 0.826233C72.4062 0.826233 74.1535 4.44612 72.5316 7.3554C72.5316 7.3554 75.2737 5.78371 75.6332 3.55159C75.6332 3.55159 76.9875 7.97403 75.3406 10.8332C74.8625 11.6498 74.1477 12.302 73.2909 12.7035C72.434 13.1051 71.4754 13.2371 70.542 13.082L60.8276 6.61971Z" fill="black"/>
<path d="M49.8929 23.8915C50.3856 25.6629 51.5613 27.1663 53.1616 28.0715C55.2934 29.267 56.932 27.503 56.8233 25.1873C56.723 23.1056 55.4941 19.9706 53.1198 19.7198C50.7456 19.469 49.316 21.6761 49.8929 23.8998" fill="#B55B52"/>
<path d="M55.3937 28.0631C55.3937 28.2285 55.3447 28.3901 55.2528 28.5276C55.1609 28.6651 55.0304 28.7722 54.8776 28.8355C54.7248 28.8987 54.5568 28.9153 54.3946 28.8831C54.2324 28.8508 54.0835 28.7712 53.9665 28.6543C53.8496 28.5373 53.77 28.3884 53.7377 28.2262C53.7055 28.064 53.722 27.896 53.7853 27.7432C53.8486 27.5904 53.9557 27.4599 54.0932 27.368C54.2307 27.2761 54.3923 27.2271 54.5577 27.2271C54.7794 27.2271 54.992 27.3152 55.1488 27.472C55.3056 27.6288 55.3937 27.8414 55.3937 28.0631Z" fill="white"/>
<path d="M64.4141 21.1076C64.4141 21.6844 64.6983 22.161 65.0745 22.1693C65.4507 22.1777 65.7684 21.7095 65.7767 21.1327C65.7851 20.5558 65.4925 20.0793 65.1163 20.0793C64.7401 20.0793 64.4224 20.5308 64.4141 21.1076Z" fill="black"/>
<path d="M70.7427 21.1494C70.7427 21.7262 71.0269 22.2028 71.4031 22.2028C71.7793 22.2028 72.097 21.7513 72.1053 21.1745C72.1137 20.5976 71.8211 20.1211 71.4449 20.1128C71.0687 20.1044 70.751 20.5725 70.7427 21.1494Z" fill="black"/>
<path d="M72.5235 19.026C72.4732 19.0254 72.4241 19.011 72.3813 18.9845C72.3386 18.958 72.3039 18.9203 72.2811 18.8755C72.1976 18.682 72.075 18.5079 71.9211 18.3641C71.7672 18.2202 71.5852 18.1097 71.3866 18.0395C70.9846 17.9494 70.5636 18.0058 70.1994 18.1983C70.1324 18.2299 70.0558 18.2348 69.9852 18.2121C69.9147 18.1894 69.8553 18.1408 69.8192 18.076C69.7832 18.0113 69.773 17.9352 69.7908 17.8633C69.8086 17.7913 69.8531 17.7288 69.9152 17.6883C70.4257 17.4088 71.0236 17.3341 71.5872 17.4793C71.8585 17.5649 72.1092 17.7056 72.3235 17.8927C72.5379 18.0797 72.7113 18.309 72.8328 18.5662C72.8687 18.6339 72.8765 18.7131 72.8546 18.7865C72.8328 18.86 72.7829 18.922 72.7158 18.9591C72.6605 19.0013 72.5931 19.0248 72.5235 19.026Z" fill="black"/>
<path d="M62.6837 18.8587C62.6398 18.8701 62.5938 18.8701 62.5499 18.8587C62.476 18.8196 62.4205 18.7529 62.3954 18.6731C62.3704 18.5932 62.3778 18.5067 62.4162 18.4324C62.7099 17.8921 63.1919 17.4786 63.7705 17.2703C64.0675 17.1901 64.3777 17.1709 64.6824 17.214C64.987 17.2571 65.2797 17.3616 65.5428 17.5211C65.5857 17.5369 65.6246 17.5617 65.657 17.5939C65.6894 17.626 65.7145 17.6648 65.7306 17.7075C65.7466 17.7503 65.7533 17.796 65.7501 17.8415C65.7469 17.887 65.734 17.9314 65.7121 17.9714C65.6902 18.0115 65.66 18.0464 65.6234 18.0737C65.5869 18.1011 65.5448 18.1202 65.5002 18.1299C65.4556 18.1395 65.4094 18.1394 65.3648 18.1295C65.3203 18.1197 65.2783 18.1004 65.2419 18.0729C65.0527 17.9561 64.8422 17.8782 64.6225 17.8438C64.4029 17.8093 64.1786 17.819 63.9628 17.8723C63.5448 18.0243 63.1949 18.3208 62.9763 18.7083C62.9459 18.7577 62.9026 18.7978 62.851 18.8243C62.7994 18.8509 62.7416 18.8628 62.6837 18.8587Z" fill="black"/>
<path d="M68.2598 20.932C68.5635 22.1498 69.214 23.2534 70.1324 24.1088C71.6038 25.3963 68.636 26.458 68.636 26.458L68.2598 20.932Z" fill="#A02724"/>
<path opacity="0.2" d="M44.4171 60.1906L33.1645 78.8083C33.1645 75.7486 33.0893 72.7891 33.0308 70.0052L44.4171 60.1906Z" fill="black"/>
<path d="M33.3651 105.519L28.8507 111.722C22.714 108.211 16.8309 104.275 11.2445 99.9424C9.82333 98.8389 8.39377 97.6852 7.00601 96.3978C5.4565 95.0195 4.02991 93.509 2.74241 91.8834C2.3329 91.3492 1.95602 90.7909 1.61381 90.2114C1.12386 89.376 0.747147 88.4792 0.493569 87.5445C0.391158 87.2003 0.318444 86.8478 0.276214 86.4912C0.212231 86.0594 0.181487 85.6234 0.184253 85.187C0.184771 84.9076 0.201518 84.6285 0.234411 84.351C0.234411 84.0751 0.301293 83.8076 0.359813 83.515C0.428496 83.2029 0.517866 82.8957 0.627332 82.5954L0.777813 82.144L0.894852 81.8932L1.12893 81.4083L1.32121 81.0488L1.51349 80.706L1.67233 80.4469C1.89805 80.079 2.08197 79.8282 2.26589 79.544C2.99321 78.5324 3.61185 77.7633 4.23885 77.036C4.86585 76.3087 5.47613 75.5897 6.08641 74.8958C8.53589 72.1956 11.0021 69.6959 13.4767 67.2214C15.9512 64.7468 18.4927 62.3475 21.0007 60.015C26.0835 55.2916 31.25 50.7271 36.6589 46.3632L46.6491 58.1758C41.6331 62.6986 36.3747 67.121 31.1999 71.51L23.4669 78.0977C20.892 80.2713 18.3505 82.4784 15.9429 84.652C15.366 85.1786 14.8059 85.7053 14.2709 86.2069C14.6805 86.7587 15.1487 87.3355 15.6168 87.8789C16.62 89.0493 17.6984 90.2532 18.827 91.4403C23.4334 96.2138 28.4578 100.887 33.3651 105.519Z" fill="#263238"/>
<path d="M30.7233 102.952C30.7233 102.952 38.03 103.378 39.3007 104.323C40.5714 105.268 36.3747 113.728 34.2847 115.316C32.1947 116.905 32.6127 113.753 32.6127 113.753C32.6127 113.753 28.9928 114.096 26.9446 112.173C24.8964 110.25 25.1472 104.908 30.7233 102.952Z" fill="#B55B52"/>
</svg>
