<svg width="10" height="8" viewBox="0 0 10 8" fill="none" xmlns="http://www.w3.org/2000/svg">
<path d="M6.87492 0.25C8.14058 0.25 9.16658 1.29167 9.16658 2.75C9.16658 5.66667 6.04158 7.33333 4.99992 7.95833C3.95825 7.33333 0.833252 5.66667 0.833252 2.75C0.833252 1.29167 1.87492 0.25 3.12492 0.25C3.89991 0.25 4.58325 0.666667 4.99992 1.08333C5.41658 0.666667 6.09992 0.25 6.87492 0.25ZM5.38904 6.75158C5.75638 6.52021 6.08742 6.28979 6.39779 6.04287C7.63896 5.05542 8.33325 3.97646 8.33325 2.75C8.33325 1.76698 7.69284 1.08333 6.87492 1.08333C6.42663 1.08333 5.94129 1.32046 5.58917 1.67259L4.99992 2.26185L4.41067 1.67259C4.05854 1.32046 3.57321 1.08333 3.12492 1.08333C2.31619 1.08333 1.66659 1.77354 1.66659 2.75C1.66659 3.97646 2.36086 5.05542 3.60206 6.04287C3.91242 6.28979 4.24346 6.52021 4.61079 6.75158C4.73517 6.82996 4.85871 6.90537 4.99992 6.98967C5.14113 6.90537 5.26467 6.82996 5.38904 6.75158Z" fill="black"/>
</svg>
