<svg width="20" height="16" viewBox="0 0 20 16" fill="none" xmlns="http://www.w3.org/2000/svg">
<path d="M2.00001 8.45461e-06C1.86749 -0.00186559 1.73593 0.0226157 1.61296 0.0720295C1.48999 0.121443 1.37807 0.194804 1.2837 0.287848C1.18933 0.380893 1.1144 0.491765 1.06325 0.614023C1.0121 0.73628 0.985764 0.867483 0.985764 1.00001C0.985764 1.13253 1.0121 1.26374 1.06325 1.38599C1.1144 1.50825 1.18933 1.61912 1.2837 1.71217C1.37807 1.80521 1.48999 1.87857 1.61296 1.92799C1.73593 1.9774 1.86749 2.00188 2.00001 2.00001H18C18.1325 2.00188 18.2641 1.9774 18.387 1.92799C18.51 1.87857 18.6219 1.80521 18.7163 1.71217C18.8107 1.61912 18.8856 1.50825 18.9368 1.38599C18.9879 1.26374 19.0142 1.13253 19.0142 1.00001C19.0142 0.867483 18.9879 0.73628 18.9368 0.614023C18.8856 0.491765 18.8107 0.380893 18.7163 0.287848C18.6219 0.194804 18.51 0.121443 18.387 0.0720295C18.2641 0.0226157 18.1325 -0.00186559 18 8.45461e-06H2.00001ZM2.00001 7.00001C1.86749 6.99813 1.73593 7.02262 1.61296 7.07203C1.48999 7.12144 1.37807 7.1948 1.2837 7.28785C1.18933 7.38089 1.1144 7.49177 1.06325 7.61402C1.0121 7.73628 0.985764 7.86748 0.985764 8.00001C0.985764 8.13253 1.0121 8.26374 1.06325 8.38599C1.1144 8.50825 1.18933 8.61912 1.2837 8.71217C1.37807 8.80521 1.48999 8.87857 1.61296 8.92799C1.73593 8.9774 1.86749 9.00188 2.00001 9.00001H18C18.1325 9.00188 18.2641 8.9774 18.387 8.92799C18.51 8.87857 18.6219 8.80521 18.7163 8.71217C18.8107 8.61912 18.8856 8.50825 18.9368 8.38599C18.9879 8.26374 19.0142 8.13253 19.0142 8.00001C19.0142 7.86748 18.9879 7.73628 18.9368 7.61402C18.8856 7.49177 18.8107 7.38089 18.7163 7.28785C18.6219 7.1948 18.51 7.12144 18.387 7.07203C18.2641 7.02262 18.1325 6.99813 18 7.00001H2.00001ZM2.00001 14C1.86749 13.9981 1.73593 14.0226 1.61296 14.072C1.48999 14.1214 1.37807 14.1948 1.2837 14.2878C1.18933 14.3809 1.1144 14.4918 1.06325 14.614C1.0121 14.7363 0.985764 14.8675 0.985764 15C0.985764 15.1325 1.0121 15.2637 1.06325 15.386C1.1144 15.5083 1.18933 15.6191 1.2837 15.7122C1.37807 15.8052 1.48999 15.8786 1.61296 15.928C1.73593 15.9774 1.86749 16.0019 2.00001 16H18C18.1325 16.0019 18.2641 15.9774 18.387 15.928C18.51 15.8786 18.6219 15.8052 18.7163 15.7122C18.8107 15.6191 18.8856 15.5083 18.9368 15.386C18.9879 15.2637 19.0142 15.1325 19.0142 15C19.0142 14.8675 18.9879 14.7363 18.9368 14.614C18.8856 14.4918 18.8107 14.3809 18.7163 14.2878C18.6219 14.1948 18.51 14.1214 18.387 14.072C18.2641 14.0226 18.1325 13.9981 18 14H2.00001Z" fill="#9C90C2"/>
</svg>
