<svg width="27" height="28" viewBox="0 0 27 28" fill="none" xmlns="http://www.w3.org/2000/svg">
<path d="M0.277832 27.0427C0.277832 21.5198 4.75498 17.0427 10.2778 17.0427C15.8007 17.0427 20.2778 21.5198 20.2778 27.0427H17.7778C17.7778 22.9006 14.42 19.5427 10.2778 19.5427C6.13569 19.5427 2.77783 22.9006 2.77783 27.0427H0.277832ZM10.2778 15.7927C6.13408 15.7927 2.77783 12.4365 2.77783 8.29272C2.77783 4.14897 6.13408 0.792725 10.2778 0.792725C14.4216 0.792725 17.7778 4.14897 17.7778 8.29272C17.7778 12.4365 14.4216 15.7927 10.2778 15.7927ZM10.2778 13.2927C13.0403 13.2927 15.2778 11.0552 15.2778 8.29272C15.2778 5.53022 13.0403 3.29272 10.2778 3.29272C7.51533 3.29272 5.27783 5.53022 5.27783 8.29272C5.27783 11.0552 7.51533 13.2927 10.2778 13.2927ZM20.6325 17.9212C24.1083 19.4879 26.5278 22.9827 26.5278 27.0427H24.0278C24.0278 23.9977 22.2132 21.3766 19.6063 20.2016L20.6325 17.9212ZM19.7731 3.80924C22.2708 4.83901 24.0278 7.29724 24.0278 10.1677C24.0278 13.7555 21.2831 16.6992 17.7778 17.0147V14.4985C19.8987 14.1955 21.5278 12.3727 21.5278 10.1677C21.5278 8.44191 20.5298 6.95026 19.0791 6.23816L19.7731 3.80924Z" fill="#CFCFCF"/>
</svg>
