<svg width="28" height="27" viewBox="0 0 28 27" fill="none" xmlns="http://www.w3.org/2000/svg">
<path d="M0.944458 26.5C0.944458 20.9771 5.42161 16.5 10.9445 16.5C16.4673 16.5 20.9445 20.9771 20.9445 26.5H0.944458ZM10.9445 15.25C6.80071 15.25 3.44446 11.8938 3.44446 7.75C3.44446 3.60625 6.80071 0.25 10.9445 0.25C15.0882 0.25 18.4445 3.60625 18.4445 7.75C18.4445 11.8938 15.0882 15.25 10.9445 15.25ZM20.148 18.0415C24.0047 19.0271 26.9043 22.4044 27.174 26.5H23.4445C23.4445 23.2377 22.1947 20.2674 20.148 18.0415ZM17.6196 15.1961C19.6605 13.3652 20.9445 10.7076 20.9445 7.75C20.9445 5.97832 20.4837 4.31426 19.6756 2.87109C22.5386 3.44246 24.6945 5.96831 24.6945 9C24.6945 12.4531 21.8976 15.25 18.4445 15.25C18.1648 15.25 17.8895 15.2316 17.6196 15.1961Z" fill="#9C90C2"/>
</svg>
