<svg width="12" height="13" viewBox="0 0 12 13" fill="none" xmlns="http://www.w3.org/2000/svg">
<path d="M6 12.8411L2.28769 9.12884C0.237437 7.07854 0.237437 3.75445 2.28769 1.70419C4.33794 -0.346059 7.66203 -0.346059 9.71233 1.70419C11.7626 3.75445 11.7626 7.07854 9.71233 9.12884L6 12.8411ZM8.88733 8.30383C10.482 6.70923 10.482 4.12379 8.88733 2.52915C7.29273 0.934509 4.70729 0.934509 3.11265 2.52915C1.51801 4.12379 1.51801 6.70923 3.11265 8.30383L6 11.1912L8.88733 8.30383ZM6 6.58317C5.35565 6.58317 4.83333 6.06085 4.83333 5.4165C4.83333 4.77217 5.35565 4.24984 6 4.24984C6.64435 4.24984 7.16667 4.77217 7.16667 5.4165C7.16667 6.06085 6.64435 6.58317 6 6.58317Z" fill="black"/>
</svg>
