<svg width="14" height="14" viewBox="0 0 14 14" fill="none" xmlns="http://www.w3.org/2000/svg">
<path d="M13.75 10.315V12.9671C13.75 13.3608 13.4456 13.6875 13.0529 13.7153C12.7248 13.7384 12.4572 13.75 12.25 13.75C5.62255 13.75 0.25 8.37745 0.25 1.75C0.25 1.54278 0.261588 1.27515 0.284763 0.947125C0.312528 0.55441 0.639205 0.25 1.03289 0.25H3.68508C3.87758 0.25 4.03882 0.395815 4.05815 0.58735C4.0755 0.759302 4.09163 0.897355 4.10655 1.00151C4.25826 2.06104 4.56815 3.06952 5.01152 4.00227C5.08269 4.15199 5.03628 4.33119 4.90139 4.42754L3.28266 5.58385C4.26814 7.88583 6.11417 9.73187 8.41615 10.7174L9.57032 9.10143C9.6679 8.96492 9.84925 8.91798 10.0007 8.9899C10.9334 9.43293 11.9418 9.74245 13.0012 9.8938C13.1047 9.90865 13.2419 9.92462 13.4126 9.94187C13.6042 9.96122 13.75 10.1225 13.75 10.315Z" fill="black"/>
</svg>
