<svg width="12" height="12" viewBox="0 0 12 12" fill="none" xmlns="http://www.w3.org/2000/svg">
<path d="M4.46324 5.23123C5.0095 6.1918 5.8082 6.9905 6.76877 7.53673L7.28473 6.81439C7.45629 6.57429 7.7801 6.50009 8.0391 6.64155C8.85973 7.08984 9.76664 7.36226 10.7127 7.43716C11.0161 7.46119 11.25 7.71436 11.25 8.01868V10.622C11.25 10.9211 11.0238 11.1717 10.7263 11.2022C10.4172 11.234 10.1053 11.25 9.79167 11.25C4.79809 11.25 0.75 7.2019 0.75 2.20833C0.75 1.89466 0.765995 1.58283 0.797769 1.27369C0.828342 0.976187 1.07897 0.75 1.37805 0.75H3.98133C4.28564 0.75 4.53883 0.98394 4.56284 1.2873C4.63772 2.23335 4.91016 3.14029 5.35845 3.96092C5.49991 4.2199 5.42571 4.54373 5.18561 4.71525L4.46324 5.23123ZM2.99248 4.84803L4.10078 4.05639C3.78652 3.378 3.57116 2.65857 3.46091 1.91667H1.92196C1.91843 2.01369 1.91667 2.11092 1.91667 2.20833C1.91667 6.55755 5.44245 10.0833 9.79167 10.0833C9.88908 10.0833 9.98633 10.0816 10.0833 10.078V8.53907C9.34145 8.42882 8.62202 8.21346 7.94361 7.89922L7.15197 9.00755C6.83172 8.88313 6.52243 8.73671 6.22598 8.57023L6.19209 8.55092C5.04899 7.90091 4.09911 6.95101 3.44908 5.80791L3.4298 5.77402C3.26329 5.47757 3.1169 5.16828 2.99248 4.84803Z" fill="black"/>
</svg>
