<svg width="21" height="21" viewBox="0 0 21 21" fill="none" xmlns="http://www.w3.org/2000/svg">
<path d="M10.2075 8.44964C9.69988 8.44964 9.2164 8.37712 8.85379 8.23207L1.31148 5.47623C0.682956 5.25867 0.610434 4.92023 0.610434 4.72684C0.610434 4.55762 0.70713 4.21918 1.31148 3.97744L8.82961 1.19742C9.19222 1.05238 9.6757 0.979858 10.1834 0.979858C10.691 0.979858 11.1745 1.05238 11.5371 1.19742L19.0794 3.97744C19.7079 4.19501 19.7805 4.53344 19.7805 4.72684C19.7805 4.89606 19.6838 5.23449 19.0794 5.47623L11.5613 8.25625C11.1987 8.37712 10.7152 8.44964 10.2075 8.44964ZM8.58787 20.996C8.41865 20.996 8.22526 20.9718 8.05604 20.8993L1.4807 18.3852C0.70713 18.0951 0.126953 17.2006 0.126953 16.3062V7.91781C0.126953 7.16842 0.537912 6.68494 1.16644 6.68494C1.33566 6.68494 1.50487 6.70911 1.67409 6.78163L8.34613 9.29573C9.14387 9.58582 9.79657 10.5044 9.79657 11.3747V19.7631C9.7724 20.4883 9.26475 20.996 8.58787 20.996ZM11.9722 20.8509H11.9964C11.3679 20.8509 10.9811 20.4883 10.9811 19.7631V11.3747C10.9811 10.4803 11.5371 9.58582 12.3107 9.29573L18.886 6.78163C19.0552 6.70911 19.2486 6.68494 19.442 6.68494C20.1189 6.68494 20.6265 7.19259 20.6265 7.91781V16.3062C20.6265 17.1765 19.9497 18.0951 19.1519 18.3852L12.4799 20.8268C12.3348 20.8993 12.1415 20.8509 11.9722 20.8509Z" fill="#9C90C2"/>
</svg>
