<svg width="24" height="28" viewBox="0 0 24 28" fill="none" xmlns="http://www.w3.org/2000/svg">
<path d="M11.9353 12.2996C11.3992 12.2996 10.866 12.1794 10.45 12.0037L2.2439 7.96069C1.70776 7.6648 1.35327 7.24585 1.35327 6.77124C1.35327 6.29663 1.6521 5.81909 2.2439 5.52319L10.5085 1.30151C10.9832 1.06421 11.5193 0.944092 12.114 0.944092C12.6501 0.944092 13.1834 1.06421 13.5994 1.23999L21.8054 5.28296C22.3416 5.57886 22.696 5.9978 22.696 6.47241C22.696 6.94702 22.4001 7.42456 21.8054 7.72046L13.5408 11.9421C13.0632 12.1794 12.53 12.2996 11.9353 12.2996ZM2.83862 6.70972L11.0447 10.7527C11.282 10.8728 11.5808 10.9314 11.9353 10.9314C12.2927 10.9314 12.6501 10.8728 12.8875 10.7527L21.2107 6.53101L13.0046 2.48804C12.7673 2.36792 12.4685 2.30933 12.114 2.30933C11.7566 2.30933 11.3992 2.36792 11.1619 2.48804L2.83862 6.70972ZM10.2683 27.1033C9.97241 27.1033 9.67358 27.0447 9.37769 26.866L2.00366 23.0017C1.11304 22.5857 0.456787 21.6335 0.456787 20.8601V10.5154C0.456787 9.80054 0.99292 9.26733 1.76343 9.26733C2.05933 9.26733 2.35815 9.32593 2.65405 9.50464L9.97241 13.3689C10.863 13.7849 11.5193 14.7371 11.5193 15.5105V25.8552C11.5193 26.5701 10.9832 27.1033 10.2683 27.1033ZM9.97241 25.6765C10.031 25.7351 10.0925 25.7351 10.1511 25.7351V15.5105C10.1511 15.2732 9.85523 14.7957 9.37769 14.5583L2.00366 10.6941C1.94507 10.6355 1.88354 10.6355 1.82495 10.6355V20.863C1.82495 21.1003 2.12378 21.5779 2.59839 21.8152L9.97241 25.6765ZM14.1941 27.1033C13.4792 27.1033 12.946 26.5671 12.946 25.8552V15.5105C12.946 14.7371 13.5994 13.7849 14.4929 13.3689L21.8054 9.50464C22.1013 9.38452 22.4001 9.26733 22.696 9.26733C23.4109 9.26733 23.9441 9.80347 23.9441 10.5154V20.8601C23.9441 21.6335 23.2908 22.5857 22.3972 23.0017L15.0847 26.866C14.7273 27.0447 14.49 27.1033 14.1941 27.1033ZM22.3972 10.6941L15.0847 14.5583C14.6101 14.7957 14.3113 15.2732 14.3113 15.5105V25.738C14.3699 25.738 14.4314 25.6794 14.49 25.6794L21.8025 21.8152C22.2771 21.5779 22.5759 21.1003 22.5759 20.863V10.6355C22.5173 10.6355 22.4587 10.6941 22.3972 10.6941Z" fill="#CFCFCF"/>
</svg>
