<svg width="74" height="15" viewBox="0 0 74 15" fill="none" xmlns="http://www.w3.org/2000/svg">
<path d="M36.1963 12.0762L31.9935 14.5563L32.9321 9.57599L29.396 6.12855L34.1789 5.5307L36.1963 0.919922L38.2136 5.5307L42.9965 6.12855L39.4604 9.57599L40.399 14.5563L36.1963 12.0762Z" fill="#F9DC00"/>
<path d="M21.5986 12.0762L17.3958 14.5563L18.3345 9.57599L14.7983 6.12855L19.5813 5.5307L21.5986 0.919922L23.6159 5.5307L28.3988 6.12855L24.8627 9.57599L25.8014 14.5563L21.5986 12.0762Z" fill="#F9DC00"/>
<path d="M7.00047 12.0762L2.79766 14.5563L3.73633 9.57599L0.200195 6.12855L4.98311 5.5307L7.00047 0.919922L9.01778 5.5307L13.8007 6.12855L10.2646 9.57599L11.2032 14.5563L7.00047 12.0762Z" fill="#F9DC00"/>
<path d="M51.1567 12.0762L46.9539 14.5563L47.8926 9.57599L44.3564 6.12855L49.1394 5.5307L51.1567 0.919922L53.174 5.5307L57.9569 6.12855L54.4208 9.57599L55.3595 14.5563L51.1567 12.0762Z" fill="#F9DC00"/>
<path d="M66.4475 12.0791L62.0273 14.5599L63.0145 9.5783L59.2954 6.12994L64.3258 5.53193L66.4475 0.919922L68.5692 5.53193L73.5996 6.12994L69.8806 9.5783L70.8678 14.5599L66.4475 12.0791ZM66.4475 10.639L69.1089 12.1326L68.5145 9.13332L70.7536 7.05711L67.725 6.69704L66.4475 3.92023L65.1701 6.69704L62.1414 7.05711L64.3806 9.13332L63.7862 12.1326L66.4475 10.639Z" fill="#F9DC00"/>
</svg>
