<svg width="29" height="29" viewBox="0 0 29 29" fill="none" xmlns="http://www.w3.org/2000/svg">
<path d="M14.169 14.0744H7.02755M6.82513 15.0106L5.64526 18.535C4.99906 20.4653 4.67596 21.4304 4.90783 22.0247C5.10918 22.541 5.54166 22.9322 6.07531 23.0812C6.68982 23.2527 7.61796 22.835 9.47426 21.9997L21.3748 16.6445C23.1867 15.829 24.0927 15.4214 24.3726 14.8551C24.6159 14.3631 24.6159 13.7857 24.3726 13.2937C24.0927 12.7274 23.1867 12.3197 21.3748 11.5044L9.45373 6.13989C7.60303 5.30708 6.67769 4.89067 6.06379 5.06149C5.53064 5.20984 5.09821 5.60011 4.89616 6.1153C4.66349 6.70853 4.98314 7.67159 5.62245 9.59771L6.82742 13.2281C6.93721 13.5589 6.99212 13.7244 7.01379 13.8935C7.03302 14.0437 7.03282 14.1956 7.01321 14.3457C6.9911 14.5148 6.93578 14.68 6.82513 15.0106Z" stroke="#9C90C2" stroke-width="2.34855" stroke-linecap="round" stroke-linejoin="round"/>
</svg>
