<svg width="18" height="18" viewBox="0 0 18 18" fill="none" xmlns="http://www.w3.org/2000/svg">
<path d="M0.964111 9.00002C0.964111 4.68366 4.48108 1.16669 8.79744 1.16669C13.1138 1.16669 16.6308 4.68366 16.6308 9.00002C16.6308 13.3164 13.1138 16.8334 8.79744 16.8334C4.48108 16.8334 0.964111 13.3164 0.964111 9.00002ZM13.0735 6.39061C12.8131 6.13016 12.4711 6.00002 12.1308 6.00002C11.7905 6.00002 11.4485 6.13016 11.188 6.39061L7.96411 9.61453L6.40686 8.05727C5.88576 7.53618 5.04246 7.53618 4.52137 8.05727C4.00027 8.57837 4.00027 9.42167 4.52137 9.94277L7.02136 12.4428C7.28122 12.7026 7.62333 12.8334 7.96411 12.8334C8.30489 12.8334 8.647 12.7026 8.90686 12.4428L13.0735 8.2761C13.5946 7.755 13.5946 6.9117 13.0735 6.39061Z" stroke="#79747E"/>
</svg>
