<svg width="28" height="20" viewBox="0 0 28 20" fill="none" xmlns="http://www.w3.org/2000/svg">
<path d="M19.656 6.5L26.0606 1.93839C26.3384 1.74044 26.7215 1.80921 26.916 2.092C26.9882 2.19705 27.027 2.32218 27.027 2.45041V17.5496C27.027 17.8947 26.752 18.1746 26.4128 18.1746C26.2867 18.1746 26.1638 18.1351 26.0606 18.0616L19.656 13.5V18.75C19.656 19.4404 19.106 20 18.4275 20H1.2285C0.550025 20 0 19.4404 0 18.75V1.25C0 0.55965 0.550025 0 1.2285 0H18.4275C19.106 0 19.656 0.55965 19.656 1.25V6.5Z" fill="white"/>
</svg>
