<svg width="24" height="28" viewBox="0 0 24 28" fill="none" xmlns="http://www.w3.org/2000/svg">
<path d="M11.9352 12.2996C11.3991 12.2996 10.8659 12.1794 10.4499 12.0037L2.24381 7.96069C1.70767 7.6648 1.35318 7.24585 1.35318 6.77124C1.35318 6.29663 1.65201 5.81909 2.24381 5.52319L10.5085 1.30151C10.9831 1.06421 11.5192 0.944092 12.1139 0.944092C12.6501 0.944092 13.1833 1.06421 13.5993 1.23999L21.8053 5.28296C22.3415 5.57886 22.696 5.9978 22.696 6.47241C22.696 6.94702 22.4001 7.42456 21.8053 7.72046L13.5407 11.9421C13.0631 12.1794 12.5299 12.2996 11.9352 12.2996ZM2.83853 6.70972L11.0446 10.7527C11.2819 10.8728 11.5807 10.9314 11.9352 10.9314C12.2926 10.9314 12.6501 10.8728 12.8874 10.7527L21.2106 6.53101L13.0045 2.48804C12.7672 2.36792 12.4684 2.30933 12.1139 2.30933C11.7565 2.30933 11.3991 2.36792 11.1618 2.48804L2.83853 6.70972ZM10.2682 27.1033C9.97232 27.1033 9.67349 27.0447 9.37759 26.866L2.00357 23.0017C1.11295 22.5857 0.456696 21.6335 0.456696 20.8601V10.5154C0.456696 9.80054 0.992828 9.26733 1.76334 9.26733C2.05923 9.26733 2.35806 9.32593 2.65396 9.50464L9.97232 13.3689C10.8629 13.7849 11.5192 14.7371 11.5192 15.5105V25.8552C11.5192 26.5701 10.9831 27.1033 10.2682 27.1033ZM9.97232 25.6765C10.0309 25.7351 10.0924 25.7351 10.151 25.7351V15.5105C10.151 15.2732 9.85513 14.7957 9.37759 14.5583L2.00357 10.6941C1.94498 10.6355 1.88345 10.6355 1.82486 10.6355V20.863C1.82486 21.1003 2.12369 21.5779 2.5983 21.8152L9.97232 25.6765ZM14.194 27.1033C13.4792 27.1033 12.946 26.5671 12.946 25.8552V15.5105C12.946 14.7371 13.5993 13.7849 14.4928 13.3689L21.8053 9.50464C22.1012 9.38452 22.4001 9.26733 22.696 9.26733C23.4108 9.26733 23.944 9.80347 23.944 10.5154V20.8601C23.944 21.6335 23.2907 22.5857 22.3971 23.0017L15.0846 26.866C14.7272 27.0447 14.4899 27.1033 14.194 27.1033ZM22.3971 10.6941L15.0846 14.5583C14.61 14.7957 14.3112 15.2732 14.3112 15.5105V25.738C14.3698 25.738 14.4313 25.6794 14.4899 25.6794L21.8024 21.8152C22.277 21.5779 22.5758 21.1003 22.5758 20.863V10.6355C22.5172 10.6355 22.4587 10.6941 22.3971 10.6941Z" fill="#CFCFCF"/>
</svg>
