<svg width="350" height="406" viewBox="0 0 350 406" fill="none" xmlns="http://www.w3.org/2000/svg">
<path d="M175 346.628C249.958 346.628 310.723 342.522 310.723 337.456C310.723 332.39 249.958 328.284 175 328.284C100.042 328.284 39.2771 332.39 39.2771 337.456C39.2771 342.522 100.042 346.628 175 346.628Z" fill="#F5F5F5"/>
<path d="M258.426 108.301H133.189C130.359 108.301 128.065 110.957 128.065 114.232V292.22C128.065 295.495 130.359 298.151 133.189 298.151H258.426C261.256 298.151 263.55 295.495 263.55 292.22V114.232C263.55 110.957 261.256 108.301 258.426 108.301Z" fill="#9C90C2"/>
<path opacity="0.6" d="M258.426 108.301H133.189C130.359 108.301 128.065 110.957 128.065 114.232V292.22C128.065 295.495 130.359 298.151 133.189 298.151H258.426C261.256 298.151 263.55 295.495 263.55 292.22V114.232C263.55 110.957 261.256 108.301 258.426 108.301Z" fill="white"/>
<path d="M241.598 225.261H150.01V243.41H241.598V225.261Z" fill="white"/>
<g opacity="0.4">
<path d="M154.63 233.979C154.626 233.624 154.684 233.271 154.802 232.942C154.92 232.614 155.094 232.317 155.314 232.069C155.534 231.821 155.795 231.628 156.082 231.5C156.369 231.373 156.675 231.315 156.982 231.329C157.287 231.317 157.591 231.378 157.874 231.509C158.157 231.64 158.414 231.839 158.627 232.091L158.326 232.44C158.153 232.237 157.945 232.077 157.716 231.971C157.488 231.865 157.242 231.815 156.996 231.824C156.502 231.824 156.029 232.051 155.679 232.455C155.33 232.859 155.134 233.407 155.134 233.979C155.134 234.551 155.33 235.099 155.679 235.503C156.029 235.907 156.502 236.134 156.996 236.134C157.243 236.143 157.489 236.093 157.718 235.985C157.947 235.878 158.154 235.716 158.326 235.51L158.627 235.859C158.413 236.112 158.155 236.311 157.871 236.442C157.586 236.573 157.281 236.634 156.975 236.62C156.669 236.636 156.363 236.579 156.077 236.452C155.79 236.326 155.529 236.133 155.31 235.886C155.09 235.639 154.916 235.342 154.799 235.014C154.683 234.686 154.625 234.334 154.63 233.979Z" fill="#263238"/>
<path d="M159.054 234.627C159.053 234.233 159.152 233.846 159.341 233.518C159.529 233.189 159.798 232.932 160.112 232.78C160.427 232.628 160.773 232.587 161.108 232.663C161.442 232.739 161.75 232.928 161.991 233.207C162.233 233.485 162.397 233.84 162.464 234.227C162.531 234.614 162.498 235.015 162.368 235.38C162.237 235.745 162.017 236.056 161.733 236.276C161.45 236.495 161.117 236.612 160.776 236.612C160.548 236.621 160.322 236.576 160.11 236.48C159.898 236.383 159.705 236.237 159.544 236.051C159.382 235.865 159.255 235.643 159.171 235.398C159.087 235.153 159.047 234.891 159.054 234.627ZM162.029 234.627C162.018 234.341 161.935 234.066 161.789 233.834C161.644 233.603 161.443 233.426 161.212 233.326C160.981 233.226 160.729 233.207 160.488 233.271C160.247 233.335 160.028 233.479 159.858 233.686C159.687 233.893 159.573 234.154 159.53 234.435C159.486 234.717 159.515 235.007 159.613 235.27C159.711 235.532 159.874 235.756 160.08 235.912C160.287 236.069 160.529 236.152 160.776 236.15C160.947 236.154 161.117 236.117 161.274 236.041C161.432 235.965 161.574 235.851 161.692 235.708C161.81 235.565 161.901 235.395 161.959 235.209C162.017 235.023 162.041 234.825 162.029 234.627Z" fill="#263238"/>
<path d="M166.53 234.311V236.58H166.075V234.36C166.095 234.197 166.084 234.03 166.041 233.873C165.998 233.716 165.925 233.572 165.828 233.452C165.73 233.332 165.61 233.239 165.477 233.18C165.344 233.121 165.202 233.098 165.06 233.112C164.898 233.099 164.736 233.128 164.584 233.195C164.433 233.262 164.296 233.367 164.183 233.502C164.071 233.637 163.985 233.799 163.932 233.977C163.879 234.154 163.86 234.343 163.877 234.53V236.58H163.422V232.666H163.856V233.387C163.992 233.14 164.184 232.94 164.411 232.808C164.638 232.677 164.891 232.62 165.144 232.642C165.335 232.625 165.526 232.657 165.705 232.736C165.883 232.815 166.045 232.938 166.177 233.098C166.31 233.257 166.41 233.449 166.471 233.659C166.532 233.869 166.552 234.091 166.53 234.311Z" fill="#263238"/>
<path d="M168.868 231.03C169.119 231.015 169.366 231.1 169.568 231.273L169.414 231.67C169.272 231.536 169.093 231.467 168.91 231.475C168.525 231.475 168.315 231.726 168.315 232.213V232.666H169.358V233.112H168.329V236.58H167.874V233.112H167.272V232.666H167.874V232.188C167.864 232.034 167.882 231.878 167.928 231.733C167.974 231.588 168.047 231.455 168.142 231.345C168.236 231.235 168.35 231.15 168.475 231.096C168.6 231.041 168.734 231.019 168.868 231.03ZM171.024 231.427C171.025 231.478 171.017 231.529 171 231.577C170.984 231.624 170.959 231.668 170.928 231.704C170.896 231.74 170.859 231.769 170.818 231.788C170.776 231.807 170.732 231.817 170.688 231.816C170.641 231.824 170.594 231.82 170.548 231.804C170.503 231.789 170.461 231.763 170.425 231.727C170.389 231.691 170.361 231.647 170.341 231.597C170.321 231.548 170.311 231.494 170.311 231.439C170.311 231.384 170.321 231.33 170.341 231.28C170.361 231.231 170.389 231.186 170.425 231.151C170.461 231.115 170.503 231.088 170.548 231.073C170.594 231.058 170.641 231.054 170.688 231.062C170.731 231.06 170.774 231.068 170.814 231.085C170.854 231.102 170.891 231.129 170.922 231.163C170.954 231.196 170.979 231.237 170.996 231.283C171.014 231.328 171.023 231.377 171.024 231.427ZM170.457 232.666H170.912V236.58H170.457V232.666Z" fill="#263238"/>
<path d="M173.887 232.642V233.153H173.775C173.614 233.143 173.454 233.176 173.305 233.247C173.156 233.318 173.023 233.426 172.914 233.564C172.806 233.702 172.725 233.866 172.678 234.044C172.631 234.222 172.618 234.41 172.641 234.595V236.588H172.2V232.674H172.634V233.444C172.749 233.181 172.93 232.963 173.154 232.82C173.377 232.677 173.633 232.615 173.887 232.642Z" fill="#263238"/>
<path d="M180.278 234.311V236.58H179.823V234.36C179.823 233.55 179.466 233.112 178.857 233.112C178.698 233.104 178.54 233.135 178.393 233.205C178.246 233.275 178.113 233.381 178.005 233.516C177.897 233.651 177.816 233.812 177.767 233.987C177.719 234.162 177.704 234.347 177.723 234.53V236.58H177.268V234.36C177.268 233.55 176.911 233.112 176.295 233.112C176.137 233.105 175.979 233.138 175.832 233.208C175.686 233.278 175.554 233.384 175.446 233.519C175.338 233.654 175.257 233.814 175.208 233.988C175.159 234.163 175.143 234.348 175.161 234.53V236.58H174.706V232.666H175.147V233.379C175.28 233.142 175.464 232.949 175.682 232.82C175.899 232.69 176.142 232.629 176.386 232.642C176.633 232.619 176.881 232.684 177.095 232.829C177.309 232.974 177.479 233.192 177.583 233.452C177.722 233.19 177.919 232.976 178.155 232.833C178.39 232.691 178.655 232.625 178.92 232.642C179.109 232.626 179.3 232.658 179.477 232.738C179.654 232.817 179.813 232.942 179.943 233.102C180.073 233.262 180.171 233.453 180.229 233.662C180.287 233.872 180.304 234.093 180.278 234.311Z" fill="#263238"/>
<path d="M187.054 231.378V236.58H186.662L183.771 232.358V236.58H183.295V231.378H183.687L186.585 235.599V231.378H187.054Z" fill="#263238"/>
<path d="M191.359 234.789H188.559C188.568 234.98 188.609 235.167 188.681 235.339C188.753 235.512 188.854 235.665 188.978 235.792C189.101 235.919 189.246 236.016 189.402 236.077C189.559 236.139 189.724 236.164 189.889 236.15C190.083 236.158 190.276 236.115 190.454 236.025C190.632 235.936 190.79 235.801 190.918 235.632L191.177 235.98C190.934 236.274 190.622 236.478 190.28 236.567C189.938 236.656 189.581 236.627 189.253 236.482C188.925 236.338 188.641 236.085 188.437 235.755C188.233 235.425 188.117 235.033 188.104 234.627C188.091 234.37 188.125 234.112 188.202 233.87C188.279 233.628 188.399 233.407 188.553 233.22C188.708 233.034 188.893 232.887 189.099 232.787C189.305 232.688 189.526 232.638 189.749 232.642C189.972 232.637 190.193 232.686 190.399 232.785C190.605 232.884 190.791 233.032 190.945 233.218C191.099 233.405 191.217 233.626 191.294 233.869C191.37 234.111 191.401 234.37 191.387 234.627C191.366 234.668 191.359 234.724 191.359 234.789ZM188.559 234.392H190.953C190.953 234.025 190.827 233.672 190.602 233.412C190.378 233.153 190.073 233.007 189.756 233.007C189.438 233.007 189.134 233.153 188.909 233.412C188.685 233.672 188.559 234.025 188.559 234.392Z" fill="#263238"/>
<path d="M197.19 232.666L195.909 236.58H195.482L194.418 233.379L193.354 236.58H192.92L191.653 232.666H192.087L193.144 235.988L194.229 232.666H194.6L195.678 235.988L196.749 232.666H197.19Z" fill="#263238"/>
<path d="M203.175 233.161C203.175 234.271 202.475 234.935 201.334 234.935H200.13V236.556H199.654V231.354H201.334C202.482 231.378 203.175 232.042 203.175 233.161ZM202.699 233.161C202.699 232.35 202.223 231.856 201.299 231.856H200.13V234.457H201.327C202.223 234.457 202.699 233.979 202.699 233.161Z" fill="#263238"/>
<path d="M206.619 234.157V236.588H206.185V235.98C206.058 236.197 205.883 236.37 205.679 236.483C205.475 236.595 205.248 236.643 205.023 236.62C204.26 236.62 203.791 236.159 203.791 235.486C203.791 234.814 204.12 234.36 205.1 234.36H206.171V234.125C206.171 233.46 205.842 233.096 205.212 233.096C204.804 233.09 204.408 233.251 204.092 233.55L203.889 233.161C204.287 232.799 204.783 232.613 205.289 232.634C205.468 232.61 205.648 232.632 205.818 232.7C205.988 232.768 206.143 232.879 206.271 233.025C206.398 233.171 206.496 233.349 206.556 233.545C206.617 233.741 206.638 233.95 206.619 234.157ZM206.164 235.405V234.765H205.1C204.442 234.765 204.232 235.065 204.232 235.462C204.232 235.859 204.547 236.199 205.086 236.199C205.315 236.216 205.543 236.148 205.737 236.005C205.93 235.863 206.08 235.652 206.164 235.405Z" fill="#263238"/>
<path d="M207.389 236.134L207.599 235.713C207.946 236.005 208.366 236.159 208.796 236.15C209.44 236.15 209.699 235.899 209.699 235.518C209.699 234.497 207.515 235.3 207.515 233.752C207.515 233.112 207.991 232.642 208.845 232.642C209.266 232.631 209.68 232.758 210.042 233.007L209.846 233.428C209.549 233.204 209.2 233.088 208.845 233.096C208.236 233.096 207.97 233.371 207.97 233.736C207.97 234.797 210.161 234.003 210.161 235.502C210.161 236.175 209.643 236.612 208.761 236.612C208.271 236.628 207.79 236.46 207.389 236.134Z" fill="#263238"/>
<path d="M210.532 236.134L210.735 235.713C211.086 236.004 211.508 236.157 211.939 236.15C212.576 236.15 212.842 235.899 212.842 235.518C212.842 234.498 210.651 235.3 210.651 233.752C210.651 233.112 211.127 232.642 211.988 232.642C212.406 232.633 212.819 232.759 213.178 233.007L212.982 233.428C212.687 233.204 212.341 233.088 211.988 233.096C211.379 233.096 211.106 233.371 211.106 233.736C211.106 234.797 213.297 234.003 213.297 235.502C213.297 236.175 212.786 236.612 211.897 236.612C211.409 236.629 210.93 236.461 210.532 236.134Z" fill="#263238"/>
<path d="M219.03 232.666L217.749 236.58H217.322L216.258 233.379L215.194 236.58H214.76L213.5 232.666H213.934L214.991 235.988L216.076 232.666H216.468L217.546 235.988L218.617 232.666H219.03Z" fill="#263238"/>
<path d="M219.282 234.627C219.282 234.235 219.382 233.851 219.571 233.525C219.759 233.199 220.026 232.944 220.339 232.794C220.652 232.643 220.997 232.604 221.329 232.68C221.661 232.756 221.967 232.944 222.207 233.221C222.447 233.497 222.611 233.85 222.678 234.235C222.745 234.62 222.712 235.018 222.583 235.381C222.455 235.744 222.236 236.055 221.955 236.274C221.674 236.493 221.343 236.611 221.004 236.612C220.776 236.622 220.549 236.578 220.336 236.482C220.124 236.386 219.931 236.24 219.769 236.054C219.608 235.868 219.481 235.645 219.397 235.399C219.313 235.154 219.274 234.891 219.282 234.627ZM222.25 234.627C222.238 234.344 222.154 234.07 222.008 233.841C221.863 233.613 221.663 233.438 221.433 233.34C221.203 233.241 220.953 233.223 220.714 233.288C220.475 233.352 220.257 233.497 220.089 233.703C219.92 233.909 219.807 234.168 219.765 234.448C219.722 234.728 219.751 235.016 219.849 235.276C219.946 235.537 220.108 235.759 220.313 235.914C220.518 236.069 220.759 236.152 221.004 236.15C221.174 236.153 221.343 236.115 221.5 236.038C221.657 235.962 221.798 235.848 221.915 235.705C222.033 235.562 222.123 235.392 222.18 235.207C222.238 235.021 222.262 234.824 222.25 234.627Z" fill="#263238"/>
<path d="M225.344 232.642V233.153H225.239C225.078 233.143 224.918 233.176 224.769 233.247C224.62 233.318 224.487 233.426 224.378 233.564C224.27 233.702 224.189 233.866 224.142 234.044C224.095 234.222 224.082 234.41 224.105 234.595V236.588H223.643V232.675H224.084V233.444C224.2 233.179 224.382 232.961 224.607 232.818C224.832 232.675 225.089 232.613 225.344 232.642Z" fill="#263238"/>
<path d="M229.215 231.062V236.58H228.781V235.77C228.646 236.027 228.454 236.238 228.225 236.38C227.996 236.523 227.739 236.592 227.479 236.58C227.024 236.58 226.588 236.371 226.266 235.998C225.945 235.626 225.764 235.121 225.764 234.595C225.764 234.068 225.945 233.563 226.266 233.191C226.588 232.819 227.024 232.61 227.479 232.61C227.732 232.6 227.982 232.665 228.207 232.8C228.431 232.935 228.622 233.134 228.76 233.379V231.03L229.215 231.062ZM228.767 234.627C228.755 234.344 228.671 234.071 228.526 233.842C228.381 233.613 228.181 233.439 227.951 233.34C227.722 233.242 227.472 233.223 227.233 233.287C226.994 233.351 226.777 233.495 226.608 233.7C226.439 233.905 226.326 234.164 226.282 234.443C226.239 234.722 226.267 235.01 226.364 235.271C226.46 235.531 226.62 235.754 226.825 235.91C227.029 236.067 227.269 236.15 227.514 236.15C227.685 236.154 227.854 236.117 228.012 236.041C228.17 235.965 228.312 235.851 228.43 235.708C228.548 235.565 228.639 235.395 228.697 235.209C228.755 235.023 228.779 234.824 228.767 234.627Z" fill="#263238"/>
</g>
<path opacity="0.2" d="M241.598 260.782H150.01V278.932H241.598V260.782Z" fill="black"/>
<g opacity="0.5">
<path d="M150.577 182.342V183.557H151.977V183.841H150.577V185.161H150.29V182.058H152.131V182.342H150.577Z" fill="black"/>
<path d="M152.39 183.995C152.39 183.759 152.45 183.529 152.563 183.333C152.677 183.137 152.837 182.984 153.025 182.894C153.213 182.804 153.42 182.781 153.62 182.826C153.819 182.872 154.003 182.986 154.147 183.152C154.291 183.319 154.389 183.531 154.428 183.762C154.468 183.993 154.448 184.233 154.37 184.45C154.292 184.668 154.16 184.854 153.991 184.985C153.822 185.116 153.623 185.186 153.419 185.186C153.283 185.191 153.147 185.164 153.02 185.107C152.892 185.049 152.777 184.961 152.681 184.849C152.584 184.738 152.508 184.604 152.458 184.457C152.408 184.31 152.385 184.153 152.39 183.995ZM154.168 183.995C154.163 183.823 154.113 183.657 154.027 183.517C153.94 183.377 153.82 183.27 153.681 183.209C153.542 183.148 153.39 183.136 153.246 183.174C153.101 183.212 152.969 183.298 152.866 183.423C152.763 183.547 152.695 183.704 152.668 183.873C152.642 184.042 152.66 184.217 152.719 184.375C152.778 184.532 152.876 184.667 153 184.761C153.125 184.854 153.27 184.904 153.419 184.902C153.521 184.905 153.622 184.883 153.716 184.837C153.811 184.792 153.896 184.725 153.966 184.639C154.037 184.554 154.091 184.453 154.126 184.342C154.16 184.231 154.175 184.112 154.168 183.995Z" fill="black"/>
<path d="M156.016 182.812V183.12H155.953C155.855 183.11 155.757 183.126 155.665 183.166C155.574 183.207 155.491 183.271 155.424 183.353C155.356 183.436 155.306 183.535 155.277 183.643C155.247 183.751 155.239 183.866 155.253 183.978V185.17H154.98V182.828H155.239V183.314C155.307 183.147 155.418 183.008 155.558 182.918C155.697 182.828 155.857 182.791 156.016 182.812Z" fill="black"/>
<path d="M158.354 182.828V184.878C158.376 185.037 158.364 185.199 158.321 185.352C158.278 185.505 158.205 185.644 158.106 185.758C158.008 185.872 157.888 185.957 157.756 186.007C157.624 186.057 157.483 186.07 157.346 186.045C157.006 186.062 156.673 185.935 156.408 185.688L156.548 185.445C156.769 185.661 157.05 185.777 157.339 185.769C157.85 185.769 158.081 185.494 158.081 184.918V184.619C157.994 184.765 157.877 184.884 157.74 184.963C157.603 185.042 157.45 185.08 157.297 185.072C157.162 185.086 157.026 185.066 156.897 185.015C156.769 184.965 156.651 184.884 156.551 184.777C156.451 184.671 156.372 184.542 156.317 184.398C156.263 184.254 156.234 184.099 156.234 183.942C156.234 183.785 156.263 183.63 156.317 183.486C156.372 183.342 156.451 183.213 156.551 183.107C156.651 183 156.769 182.919 156.897 182.869C157.026 182.818 157.162 182.798 157.297 182.812C157.453 182.804 157.608 182.843 157.747 182.924C157.887 183.005 158.007 183.125 158.095 183.274V182.828H158.354ZM158.088 183.938C158.092 183.762 158.051 183.589 157.97 183.441C157.889 183.292 157.771 183.175 157.632 183.105C157.493 183.034 157.339 183.013 157.19 183.045C157.04 183.076 156.902 183.158 156.793 183.281C156.685 183.403 156.61 183.56 156.579 183.732C156.547 183.904 156.561 184.083 156.618 184.246C156.675 184.409 156.773 184.548 156.899 184.646C157.025 184.744 157.173 184.797 157.325 184.797C157.426 184.808 157.527 184.793 157.623 184.754C157.718 184.715 157.805 184.653 157.878 184.571C157.95 184.489 158.006 184.39 158.043 184.281C158.079 184.172 158.095 184.055 158.088 183.938Z" fill="black"/>
<path d="M158.9 183.995C158.9 183.759 158.96 183.529 159.073 183.333C159.187 183.137 159.347 182.984 159.535 182.894C159.723 182.804 159.93 182.781 160.13 182.826C160.329 182.872 160.513 182.986 160.657 183.152C160.801 183.319 160.899 183.531 160.938 183.762C160.978 183.993 160.958 184.233 160.88 184.45C160.802 184.668 160.67 184.854 160.501 184.985C160.332 185.116 160.133 185.186 159.929 185.186C159.793 185.191 159.657 185.164 159.53 185.107C159.402 185.049 159.287 184.961 159.191 184.849C159.094 184.738 159.018 184.604 158.968 184.457C158.918 184.31 158.895 184.153 158.9 183.995ZM160.678 183.995C160.671 183.825 160.622 183.662 160.535 183.525C160.449 183.387 160.33 183.283 160.192 183.223C160.055 183.164 159.906 183.152 159.763 183.19C159.62 183.228 159.49 183.314 159.388 183.436C159.287 183.559 159.219 183.713 159.193 183.88C159.167 184.047 159.183 184.22 159.241 184.376C159.299 184.532 159.394 184.665 159.517 184.758C159.639 184.852 159.782 184.902 159.929 184.902C160.032 184.907 160.135 184.887 160.231 184.842C160.327 184.798 160.413 184.731 160.485 184.645C160.557 184.56 160.613 184.458 160.649 184.346C160.684 184.233 160.699 184.114 160.692 183.995H160.678Z" fill="black"/>
<path d="M162.589 185.024C162.466 185.131 162.316 185.187 162.162 185.186C162.083 185.196 162.002 185.186 161.927 185.155C161.851 185.124 161.783 185.075 161.726 185.009C161.67 184.944 161.627 184.865 161.601 184.777C161.574 184.69 161.565 184.597 161.574 184.505V183.095H161.21V182.828H161.574V182.317H161.847V182.828H162.456V183.095H161.847V184.489C161.847 184.764 161.966 184.91 162.19 184.91C162.298 184.913 162.404 184.873 162.491 184.797L162.589 185.024Z" fill="black"/>
<path d="M166.25 183.12C166.25 183.784 165.83 184.181 165.151 184.181H164.451V185.161H164.164V182.058H165.172C165.83 182.058 166.25 182.455 166.25 183.12ZM165.963 183.12C165.963 182.625 165.683 182.309 165.144 182.309H164.444V183.857H165.144C165.683 183.889 165.963 183.606 165.963 183.12Z" fill="black"/>
<path d="M168.308 183.719V185.161H168.049V184.797C167.973 184.928 167.868 185.034 167.745 185.102C167.622 185.17 167.485 185.199 167.349 185.186C166.887 185.186 166.607 184.91 166.607 184.505C166.607 184.1 166.81 183.841 167.391 183.841H168.028V183.703C168.034 183.617 168.023 183.53 167.996 183.449C167.969 183.369 167.927 183.296 167.873 183.237C167.818 183.178 167.753 183.134 167.682 183.108C167.61 183.082 167.535 183.075 167.461 183.087C167.206 183.073 166.956 183.172 166.761 183.363L166.635 183.128C166.868 182.915 167.157 182.803 167.454 182.812C167.565 182.781 167.681 182.783 167.792 182.816C167.903 182.849 168.005 182.914 168.089 183.003C168.173 183.093 168.237 183.205 168.275 183.33C168.314 183.454 168.325 183.588 168.308 183.719ZM168.035 184.465V184.076H167.405C167.013 184.076 166.887 184.254 166.887 184.497C166.887 184.74 167.076 184.935 167.398 184.935C167.533 184.944 167.668 184.903 167.782 184.819C167.897 184.735 167.985 184.611 168.035 184.465Z" fill="black"/>
<path d="M168.77 184.935L168.896 184.692C169.1 184.86 169.345 184.951 169.596 184.951C169.981 184.951 170.135 184.797 170.135 184.57C170.135 183.962 168.826 184.44 168.826 183.517C168.826 183.136 169.113 182.852 169.624 182.852C169.87 182.848 170.113 182.924 170.324 183.071L170.205 183.322C170.03 183.184 169.822 183.113 169.61 183.12C169.246 183.12 169.085 183.282 169.085 183.509C169.085 184.141 170.394 183.662 170.394 184.562C170.394 184.967 170.086 185.226 169.561 185.226C169.277 185.229 169 185.127 168.77 184.935Z" fill="black"/>
<path d="M170.646 184.935L170.772 184.692C170.977 184.859 171.221 184.95 171.472 184.951C171.857 184.951 172.011 184.797 172.011 184.57C172.011 183.962 170.709 184.44 170.709 183.517C170.709 183.136 170.989 182.852 171.5 182.852C171.746 182.848 171.989 182.924 172.2 183.071L172.081 183.322C171.906 183.184 171.698 183.113 171.486 183.12C171.122 183.12 170.961 183.282 170.961 183.509C170.961 184.141 172.27 183.662 172.27 184.562C172.27 184.967 171.962 185.226 171.437 185.226C171.153 185.229 170.876 185.127 170.646 184.935Z" fill="black"/>
<path d="M175.7 182.828L175 185.161H174.741L174.104 183.249L173.467 185.161H173.208L172.452 182.828H172.711L173.341 184.813L173.992 182.828H174.223L174.867 184.813L175.511 182.828H175.7Z" fill="black"/>
<path d="M175.875 183.995C175.875 183.759 175.936 183.529 176.049 183.333C176.162 183.137 176.322 182.984 176.51 182.894C176.698 182.804 176.905 182.781 177.105 182.826C177.305 182.872 177.488 182.986 177.632 183.152C177.776 183.319 177.874 183.531 177.913 183.762C177.953 183.993 177.933 184.233 177.855 184.45C177.777 184.668 177.645 184.854 177.476 184.985C177.307 185.116 177.108 185.186 176.904 185.186C176.768 185.191 176.632 185.164 176.505 185.107C176.378 185.049 176.262 184.961 176.166 184.849C176.069 184.738 175.993 184.604 175.943 184.457C175.894 184.31 175.87 184.153 175.875 183.995ZM177.653 183.995C177.646 183.825 177.597 183.662 177.51 183.525C177.424 183.387 177.305 183.283 177.167 183.223C177.03 183.164 176.881 183.152 176.738 183.19C176.595 183.228 176.465 183.314 176.363 183.436C176.262 183.559 176.194 183.713 176.168 183.88C176.142 184.047 176.159 184.22 176.216 184.376C176.274 184.532 176.37 184.665 176.492 184.758C176.614 184.852 176.758 184.902 176.904 184.902C177.006 184.905 177.107 184.883 177.202 184.837C177.296 184.792 177.381 184.725 177.451 184.639C177.522 184.554 177.576 184.453 177.611 184.342C177.646 184.231 177.66 184.112 177.653 183.995Z" fill="black"/>
<path d="M179.501 182.812V183.12H179.438C179.34 183.11 179.242 183.126 179.15 183.166C179.059 183.207 178.976 183.271 178.909 183.353C178.841 183.436 178.791 183.535 178.762 183.643C178.732 183.751 178.724 183.866 178.738 183.978V185.169H178.5V182.828H178.759V183.314C178.825 183.154 178.931 183.02 179.063 182.93C179.195 182.841 179.348 182.799 179.501 182.812Z" fill="black"/>
<path d="M181.818 181.872V185.161H181.552V184.7C181.472 184.854 181.358 184.981 181.221 185.067C181.085 185.152 180.93 185.193 180.775 185.186C180.518 185.161 180.278 185.025 180.103 184.805C179.928 184.586 179.831 184.298 179.831 183.999C179.831 183.7 179.928 183.412 180.103 183.192C180.278 182.972 180.518 182.836 180.775 182.812C180.927 182.806 181.077 182.846 181.212 182.927C181.347 183.007 181.461 183.127 181.545 183.274V181.872H181.818ZM181.545 183.995C181.538 183.825 181.488 183.662 181.402 183.525C181.316 183.387 181.197 183.283 181.059 183.223C180.922 183.164 180.773 183.152 180.63 183.19C180.487 183.228 180.357 183.314 180.255 183.436C180.154 183.559 180.086 183.713 180.06 183.88C180.034 184.047 180.05 184.22 180.108 184.376C180.166 184.532 180.261 184.665 180.384 184.758C180.506 184.852 180.649 184.902 180.796 184.902C180.898 184.905 180.999 184.883 181.093 184.837C181.188 184.792 181.273 184.725 181.343 184.639C181.414 184.554 181.468 184.453 181.503 184.342C181.537 184.231 181.552 184.112 181.545 183.995Z" fill="black"/>
<path d="M183.799 182.852C183.799 182.528 183.575 182.309 183.183 182.309C183.045 182.298 182.907 182.325 182.779 182.387C182.652 182.449 182.538 182.544 182.448 182.666L182.245 182.488C182.364 182.331 182.512 182.208 182.678 182.128C182.845 182.048 183.024 182.013 183.204 182.026C183.736 182.026 184.086 182.326 184.086 182.836C184.086 183.59 183.386 183.646 183.386 184.262H183.106C183.099 183.5 183.799 183.427 183.799 182.852ZM183.043 184.935C183.052 184.881 183.077 184.832 183.113 184.797C183.149 184.762 183.195 184.743 183.243 184.743C183.29 184.743 183.336 184.762 183.372 184.797C183.409 184.832 183.433 184.881 183.442 184.935C183.448 184.968 183.447 185.003 183.439 185.037C183.432 185.07 183.418 185.101 183.399 185.128C183.38 185.155 183.356 185.176 183.329 185.191C183.302 185.205 183.272 185.213 183.243 185.213C183.213 185.213 183.183 185.205 183.156 185.191C183.129 185.176 183.105 185.155 183.086 185.128C183.067 185.101 183.054 185.07 183.046 185.037C183.039 185.003 183.038 184.968 183.043 184.935Z" fill="black"/>
</g>
<path d="M241.598 259.664H150.01V277.814H241.598V259.664Z" fill="#9C90C2"/>
<path d="M169.981 270.821L170.268 270.124C170.766 270.599 171.394 270.854 172.039 270.845C172.963 270.845 173.362 270.432 173.362 269.889C173.362 268.374 170.114 269.33 170.114 267.021C170.114 266.065 170.758 265.246 172.165 265.246C172.775 265.233 173.376 265.425 173.894 265.797L173.642 266.502C173.2 266.178 172.688 266.004 172.165 266C171.255 266 170.863 266.446 170.863 266.989C170.863 268.504 174.118 267.556 174.118 269.833C174.118 270.789 173.418 271.599 172.018 271.599C171.282 271.621 170.562 271.346 169.981 270.821Z" fill="white"/>
<path d="M178.787 269.492H175.49C175.542 269.894 175.723 270.259 175.996 270.515C176.27 270.77 176.616 270.896 176.967 270.87C177.186 270.878 177.403 270.831 177.605 270.733C177.806 270.635 177.988 270.488 178.136 270.302L178.542 270.853C178.243 271.206 177.863 271.452 177.446 271.56C177.03 271.668 176.595 271.634 176.195 271.463C175.795 271.292 175.446 270.99 175.19 270.594C174.935 270.199 174.784 269.726 174.755 269.233C174.74 268.915 174.783 268.598 174.879 268.3C174.976 268.003 175.124 267.731 175.315 267.503C175.506 267.275 175.736 267.095 175.99 266.974C176.245 266.854 176.517 266.795 176.792 266.802C177.066 266.793 177.338 266.851 177.591 266.972C177.844 267.092 178.073 267.273 178.262 267.502C178.452 267.731 178.597 268.003 178.69 268.301C178.783 268.599 178.821 268.917 178.801 269.233C178.801 269.306 178.794 269.411 178.787 269.492ZM175.49 268.885H178.101C178.061 268.517 177.906 268.179 177.665 267.934C177.425 267.689 177.116 267.553 176.795 267.553C176.475 267.553 176.166 267.689 175.926 267.934C175.685 268.179 175.53 268.517 175.49 268.885Z" fill="white"/>
<path d="M182.112 271.291C181.856 271.513 181.542 271.628 181.223 271.615C181.05 271.638 180.875 271.616 180.711 271.55C180.547 271.484 180.397 271.377 180.274 271.235C180.15 271.094 180.055 270.922 179.997 270.732C179.938 270.543 179.917 270.341 179.935 270.14V267.58H179.235V266.883H179.935V265.854H180.67V266.883H181.839V267.58H180.67V270.132C180.653 270.237 180.658 270.344 180.683 270.446C180.708 270.548 180.753 270.642 180.815 270.72C180.877 270.798 180.953 270.859 181.038 270.898C181.124 270.937 181.216 270.952 181.307 270.943C181.514 270.949 181.717 270.871 181.881 270.724L182.112 271.291Z" fill="white"/>
<path d="M189.511 267.515C189.511 268.868 188.664 269.679 187.271 269.679H185.941V271.566H185.178V265.352H187.278C188.664 265.352 189.511 266.162 189.511 267.515ZM188.741 267.515C188.741 266.624 188.23 266.122 187.25 266.122H185.941V268.909H187.25C188.23 268.909 188.741 268.39 188.741 267.515Z" fill="white"/>
<path d="M193.718 268.722V271.566H193.018V270.943C192.862 271.175 192.657 271.359 192.424 271.477C192.19 271.594 191.935 271.642 191.681 271.615C190.764 271.615 190.183 271.048 190.183 270.229C190.183 269.411 190.603 268.852 191.814 268.852H192.983V268.69C192.983 267.969 192.619 267.548 191.891 267.548C191.424 267.547 190.971 267.727 190.603 268.058L190.295 267.418C190.781 267.005 191.372 266.791 191.975 266.81C193.088 266.81 193.718 267.434 193.718 268.722ZM192.983 270.124V269.468H191.842C191.142 269.468 190.911 269.8 190.911 270.197C190.911 270.594 191.247 270.959 191.807 270.959C192.054 270.979 192.3 270.91 192.511 270.76C192.722 270.611 192.887 270.388 192.983 270.124Z" fill="white"/>
<path d="M194.6 271.064L194.908 270.392C195.325 270.705 195.811 270.874 196.308 270.878C197.008 270.878 197.274 270.643 197.274 270.238C197.274 269.184 194.705 270.1 194.705 268.228C194.705 267.418 195.356 266.81 196.399 266.81C196.918 266.8 197.429 266.948 197.883 267.24L197.568 267.912C197.216 267.656 196.807 267.526 196.392 267.54C195.748 267.54 195.433 267.815 195.433 268.188C195.433 269.298 198.016 268.39 198.016 270.221C198.016 271.072 197.316 271.615 196.259 271.615C195.67 271.631 195.091 271.439 194.6 271.064Z" fill="white"/>
<path d="M198.415 271.064L198.723 270.392C199.14 270.705 199.626 270.874 200.123 270.878C200.823 270.878 201.089 270.643 201.089 270.238C201.089 269.184 198.52 270.1 198.52 268.228C198.52 267.418 199.171 266.81 200.214 266.81C200.73 266.801 201.24 266.949 201.691 267.24L201.376 267.912C201.026 267.658 200.62 267.528 200.207 267.54C199.563 267.54 199.248 267.815 199.248 268.188C199.248 269.298 201.824 268.39 201.824 270.221C201.824 271.072 201.124 271.615 200.067 271.615C199.481 271.629 198.905 271.436 198.415 271.064Z" fill="white"/>
<path d="M208.845 266.859L207.326 271.566H206.626L205.45 267.993L204.26 271.566H203.56L202.055 266.859H202.755L203.938 270.602L205.163 266.859H205.8L207.004 270.618L208.215 266.859H208.845Z" fill="white"/>
<path d="M209.104 269.201C209.104 268.72 209.227 268.25 209.458 267.85C209.689 267.45 210.017 267.139 210.4 266.955C210.784 266.771 211.206 266.723 211.614 266.816C212.021 266.91 212.395 267.142 212.689 267.482C212.983 267.822 213.183 268.255 213.264 268.726C213.345 269.198 213.303 269.687 213.144 270.131C212.985 270.575 212.716 270.955 212.371 271.222C212.025 271.489 211.619 271.631 211.204 271.631C210.925 271.644 210.647 271.59 210.388 271.472C210.128 271.354 209.892 271.175 209.695 270.947C209.498 270.719 209.344 270.446 209.242 270.145C209.14 269.845 209.093 269.523 209.104 269.201ZM212.604 269.201C212.597 268.88 212.508 268.569 212.349 268.308C212.189 268.046 211.966 267.844 211.708 267.729C211.449 267.614 211.167 267.59 210.897 267.661C210.627 267.731 210.381 267.892 210.19 268.125C209.999 268.357 209.872 268.649 209.825 268.965C209.778 269.281 209.813 269.606 209.925 269.899C210.037 270.192 210.222 270.439 210.456 270.611C210.69 270.782 210.962 270.869 211.239 270.862C211.424 270.864 211.608 270.823 211.779 270.739C211.949 270.655 212.103 270.531 212.23 270.375C212.357 270.219 212.455 270.034 212.517 269.832C212.579 269.629 212.604 269.414 212.59 269.201H212.604Z" fill="white"/>
<path d="M216.538 266.81V267.621H216.37C216.188 267.606 216.005 267.639 215.836 267.717C215.666 267.795 215.514 267.917 215.391 268.073C215.268 268.228 215.177 268.414 215.124 268.617C215.072 268.819 215.06 269.032 215.089 269.241V271.591H214.389V266.883H215.089V267.693C215.235 267.405 215.449 267.169 215.705 267.013C215.961 266.857 216.249 266.787 216.538 266.81Z" fill="white"/>
<path d="M221.242 264.979V271.566H220.542V270.821C220.376 271.082 220.157 271.293 219.904 271.434C219.652 271.575 219.373 271.643 219.093 271.631C218.597 271.543 218.145 271.252 217.819 270.811C217.492 270.371 217.313 269.809 217.313 269.229C217.313 268.648 217.492 268.087 217.819 267.646C218.145 267.206 218.597 266.915 219.093 266.826C219.361 266.819 219.628 266.884 219.871 267.016C220.114 267.148 220.327 267.344 220.493 267.588V264.995L221.242 264.979ZM220.5 269.201C220.493 268.88 220.404 268.569 220.244 268.308C220.085 268.046 219.862 267.844 219.603 267.729C219.345 267.614 219.063 267.59 218.793 267.661C218.523 267.731 218.277 267.892 218.086 268.125C217.895 268.357 217.768 268.649 217.721 268.965C217.674 269.281 217.708 269.606 217.821 269.899C217.933 270.192 218.118 270.439 218.352 270.611C218.586 270.782 218.858 270.869 219.135 270.862C219.321 270.867 219.507 270.827 219.679 270.744C219.851 270.661 220.007 270.537 220.135 270.381C220.264 270.225 220.363 270.039 220.425 269.835C220.488 269.632 220.514 269.416 220.5 269.201Z" fill="white"/>
<g opacity="0.6">
<path d="M166.887 136.457L165.62 134.367C165.501 134.367 165.375 134.367 165.249 134.367H163.8V136.433H162.96V129.627H165.249C166.775 129.627 167.699 130.526 167.699 132.001C167.718 132.473 167.603 132.939 167.37 133.327C167.137 133.716 166.8 134.004 166.411 134.148L167.811 136.433L166.887 136.457ZM166.887 132.025C166.887 131.053 166.327 130.502 165.249 130.502H163.849V133.565H165.249C166.299 133.565 166.859 132.997 166.859 132.025H166.887Z" fill="#263238"/>
<path d="M172.949 134.197H169.344C169.395 134.638 169.59 135.04 169.89 135.319C170.19 135.598 170.571 135.733 170.954 135.696C171.193 135.706 171.432 135.656 171.653 135.55C171.874 135.444 172.073 135.283 172.235 135.08L172.683 135.679C172.355 136.066 171.936 136.334 171.479 136.451C171.022 136.568 170.545 136.528 170.106 136.338C169.668 136.148 169.286 135.814 169.008 135.378C168.73 134.942 168.567 134.422 168.539 133.881C168.526 133.535 168.575 133.191 168.683 132.869C168.79 132.546 168.953 132.253 169.163 132.007C169.372 131.76 169.623 131.567 169.9 131.437C170.177 131.308 170.474 131.246 170.772 131.255C171.069 131.247 171.365 131.31 171.64 131.441C171.915 131.571 172.164 131.766 172.37 132.014C172.577 132.261 172.737 132.556 172.84 132.878C172.943 133.201 172.988 133.545 172.97 133.889C172.971 133.992 172.964 134.095 172.949 134.197ZM169.344 133.524H172.2C172.2 133.087 172.05 132.667 171.783 132.358C171.516 132.049 171.153 131.875 170.776 131.875C170.398 131.875 170.035 132.049 169.768 132.358C169.501 132.667 169.351 133.087 169.351 133.524H169.344Z" fill="#263238"/>
<path d="M173.523 135.914L173.859 135.177C174.324 135.525 174.866 135.71 175.42 135.712C176.169 135.712 176.477 135.444 176.477 135.007C176.477 133.856 173.677 134.853 173.677 132.803C173.677 131.879 174.377 131.255 175.532 131.255C176.097 131.246 176.655 131.408 177.149 131.725L176.806 132.463C176.422 132.187 175.977 132.046 175.525 132.058C174.825 132.058 174.475 132.357 174.475 132.762C174.475 133.978 177.275 132.989 177.275 134.991C177.275 135.922 176.533 136.514 175.35 136.514C174.703 136.532 174.066 136.323 173.523 135.914Z" fill="#263238"/>
<path d="M182.301 134.197H178.689C178.743 134.636 178.939 135.036 179.238 135.314C179.537 135.592 179.916 135.729 180.299 135.696C180.539 135.706 180.779 135.657 181.001 135.55C181.223 135.444 181.423 135.284 181.587 135.08L182.035 135.679C181.81 135.954 181.537 136.168 181.233 136.308C180.93 136.448 180.604 136.51 180.278 136.49C179.968 136.517 179.656 136.469 179.363 136.348C179.07 136.227 178.801 136.036 178.576 135.788C178.35 135.54 178.172 135.24 178.053 134.907C177.934 134.574 177.876 134.216 177.884 133.856C177.872 133.511 177.922 133.167 178.03 132.846C178.137 132.524 178.301 132.231 178.51 131.985C178.719 131.739 178.97 131.545 179.246 131.415C179.522 131.286 179.819 131.223 180.117 131.231C180.416 131.221 180.714 131.284 180.991 131.416C181.269 131.547 181.519 131.744 181.726 131.995C181.933 132.245 182.092 132.543 182.194 132.87C182.295 133.196 182.337 133.543 182.315 133.889C182.315 133.986 182.308 134.108 182.301 134.197ZM178.689 133.524H181.545C181.51 133.114 181.344 132.734 181.08 132.457C180.816 132.18 180.473 132.027 180.117 132.027C179.761 132.027 179.418 132.18 179.154 132.457C178.89 132.734 178.724 133.114 178.689 133.524Z" fill="#263238"/>
<path d="M185.941 136.157C185.662 136.402 185.318 136.528 184.968 136.514C184.779 136.537 184.589 136.511 184.41 136.437C184.231 136.364 184.068 136.245 183.934 136.09C183.8 135.935 183.698 135.747 183.634 135.54C183.571 135.333 183.548 135.112 183.568 134.893V132.066H182.812V131.296H183.568V130.17H184.373V131.296H185.647V132.066H184.373V134.853C184.359 134.966 184.367 135.081 184.397 135.189C184.426 135.298 184.477 135.397 184.544 135.48C184.611 135.564 184.693 135.628 184.785 135.67C184.876 135.711 184.975 135.728 185.073 135.72C185.3 135.721 185.522 135.636 185.703 135.477L185.941 136.157Z" fill="#263238"/>
<path d="M194.033 132.025C194.033 133.5 193.109 134.399 191.583 134.399H190.134V136.457H189.294V129.651H191.583C193.109 129.651 194.033 130.55 194.033 132.025ZM193.193 132.025C193.193 131.053 192.633 130.502 191.555 130.502H190.155V133.548H191.555C192.633 133.548 193.2 132.997 193.2 132.025H193.193Z" fill="#263238"/>
<path d="M198.639 133.346V136.457H197.876V135.777C197.706 136.033 197.482 136.234 197.227 136.363C196.971 136.492 196.691 136.544 196.413 136.514C195.405 136.514 194.768 135.89 194.768 134.999C194.768 134.108 195.23 133.492 196.553 133.492H197.834V133.305C197.834 132.495 197.435 132.066 196.637 132.066C196.13 132.061 195.636 132.255 195.237 132.617L194.901 131.92C195.433 131.467 196.082 131.233 196.742 131.255C197.953 131.255 198.639 131.936 198.639 133.346ZM197.834 134.885V134.164H196.588C195.79 134.164 195.566 134.521 195.566 134.974C195.566 135.428 195.937 135.785 196.546 135.785C196.815 135.81 197.084 135.737 197.315 135.575C197.546 135.414 197.728 135.173 197.834 134.885Z" fill="#263238"/>
<path d="M199.57 135.914L199.906 135.177C200.371 135.525 200.913 135.71 201.467 135.712C202.216 135.712 202.531 135.444 202.531 135.007C202.531 133.856 199.731 134.853 199.731 132.803C199.731 131.879 200.431 131.255 201.586 131.255C202.151 131.245 202.709 131.407 203.203 131.725L202.86 132.463C202.476 132.186 202.031 132.045 201.579 132.058C200.879 132.058 200.529 132.357 200.529 132.763C200.529 133.978 203.329 132.989 203.329 134.991C203.329 135.922 202.587 136.514 201.404 136.514C200.755 136.532 200.115 136.323 199.57 135.914Z" fill="#263238"/>
<path d="M203.784 135.914L204.12 135.177C204.585 135.526 205.127 135.711 205.681 135.712C206.423 135.712 206.738 135.444 206.738 135.007C206.738 133.856 203.938 134.853 203.938 132.803C203.938 131.879 204.638 131.255 205.793 131.255C206.36 131.246 206.92 131.408 207.417 131.725L207.067 132.463C206.683 132.186 206.238 132.045 205.786 132.058C205.086 132.058 204.736 132.357 204.736 132.763C204.736 133.978 207.536 132.989 207.536 134.991C207.536 135.923 206.794 136.514 205.611 136.514C204.963 136.533 204.326 136.324 203.784 135.914Z" fill="#263238"/>
<path d="M215.201 131.304L213.542 136.457H212.8L211.519 132.552L210.217 136.457H209.44L207.788 131.304H208.551L209.846 135.412L211.19 131.304H211.89L213.206 135.428L214.536 131.304H215.201Z" fill="#263238"/>
<path d="M215.481 133.889C215.473 133.356 215.601 132.833 215.851 132.386C216.1 131.938 216.459 131.587 216.882 131.377C217.304 131.166 217.772 131.106 218.224 131.204C218.676 131.302 219.093 131.553 219.421 131.926C219.749 132.3 219.974 132.777 220.067 133.299C220.16 133.82 220.116 134.362 219.942 134.855C219.768 135.348 219.471 135.77 219.09 136.066C218.708 136.363 218.258 136.522 217.798 136.522C217.494 136.538 217.19 136.481 216.905 136.355C216.621 136.228 216.362 136.036 216.145 135.789C215.927 135.542 215.756 135.246 215.642 134.919C215.528 134.592 215.473 134.241 215.481 133.889ZM219.296 133.889C219.282 133.55 219.183 133.223 219.01 132.948C218.838 132.674 218.599 132.465 218.324 132.346C218.05 132.227 217.751 132.204 217.465 132.28C217.179 132.355 216.919 132.527 216.716 132.772C216.514 133.017 216.378 133.326 216.326 133.66C216.273 133.994 216.307 134.339 216.422 134.651C216.537 134.963 216.729 135.229 216.973 135.416C217.218 135.603 217.505 135.703 217.798 135.704C218.002 135.71 218.205 135.667 218.394 135.577C218.583 135.487 218.754 135.352 218.895 135.181C219.036 135.01 219.144 134.806 219.213 134.584C219.283 134.361 219.311 134.125 219.296 133.889Z" fill="#263238"/>
<path d="M223.622 131.255V132.163H223.433C223.237 132.148 223.041 132.183 222.858 132.266C222.676 132.35 222.511 132.479 222.377 132.645C222.243 132.811 222.143 133.01 222.083 133.226C222.024 133.443 222.007 133.672 222.033 133.897V136.465H221.2V131.312H221.97V132.179C222.141 131.859 222.387 131.602 222.68 131.439C222.972 131.275 223.299 131.212 223.622 131.255Z" fill="#263238"/>
<path d="M228.767 129.246V136.457H227.997V135.647C227.814 135.932 227.573 136.16 227.296 136.313C227.019 136.465 226.714 136.537 226.408 136.522C225.827 136.485 225.281 136.191 224.881 135.702C224.482 135.213 224.259 134.566 224.259 133.893C224.259 133.22 224.482 132.572 224.881 132.083C225.281 131.594 225.827 131.301 226.408 131.264C226.703 131.25 226.998 131.316 227.268 131.456C227.537 131.597 227.775 131.808 227.962 132.074V129.238L228.767 129.246ZM227.969 133.889C227.955 133.549 227.856 133.222 227.683 132.948C227.51 132.673 227.271 132.464 226.996 132.345C226.721 132.226 226.422 132.204 226.136 132.28C225.85 132.357 225.589 132.529 225.387 132.775C225.185 133.021 225.049 133.331 224.998 133.665C224.946 134 224.981 134.344 225.097 134.656C225.213 134.968 225.406 135.234 225.651 135.42C225.897 135.606 226.184 135.705 226.478 135.704C226.682 135.709 226.884 135.665 227.072 135.574C227.26 135.484 227.43 135.348 227.57 135.178C227.71 135.007 227.818 134.804 227.887 134.582C227.956 134.36 227.984 134.124 227.969 133.889Z" fill="#263238"/>
</g>
<path d="M241.598 198.028H150.01V216.178H241.598V198.028Z" fill="white"/>
<g opacity="0.4">
<path d="M158.781 204.146V209.347H158.389L155.498 205.126V209.347H155.022V204.146H155.4L158.298 208.367V204.146H158.781Z" fill="#263238"/>
<path d="M163.1 207.557H160.3C160.309 207.748 160.351 207.935 160.422 208.107C160.494 208.279 160.595 208.433 160.719 208.56C160.843 208.686 160.987 208.783 161.143 208.845C161.3 208.906 161.465 208.931 161.63 208.918C161.823 208.925 162.016 208.883 162.194 208.795C162.371 208.707 162.53 208.574 162.659 208.407L162.918 208.748C162.676 209.041 162.364 209.245 162.022 209.334C161.679 209.424 161.322 209.394 160.994 209.25C160.666 209.106 160.383 208.853 160.178 208.523C159.974 208.193 159.858 207.8 159.845 207.395C159.833 207.137 159.866 206.879 159.943 206.637C160.021 206.395 160.14 206.174 160.295 205.988C160.449 205.802 160.635 205.654 160.84 205.555C161.046 205.455 161.267 205.406 161.49 205.41C161.713 205.404 161.934 205.453 162.14 205.552C162.346 205.651 162.532 205.799 162.686 205.986C162.84 206.172 162.959 206.394 163.035 206.636C163.111 206.879 163.143 207.137 163.128 207.395C163.1 207.443 163.1 207.5 163.1 207.557ZM160.3 207.168H162.694C162.694 206.8 162.568 206.448 162.343 206.188C162.119 205.928 161.815 205.782 161.497 205.782C161.18 205.782 160.875 205.928 160.651 206.188C160.426 206.448 160.3 206.8 160.3 207.168Z" fill="#263238"/>
<path d="M168.917 205.442L167.643 209.347H167.209L166.145 206.147L165.081 209.347H164.647L163.38 205.442H163.8L164.857 208.764L165.942 205.442H166.334L167.412 208.764L168.483 205.442H168.917Z" fill="#263238"/>
<path d="M174.902 205.928C174.902 207.038 174.202 207.711 173.068 207.711H171.857V209.331H171.381V204.129H173.068C174.209 204.146 174.902 204.818 174.902 205.928ZM174.426 205.928C174.426 205.118 173.95 204.624 173.026 204.624H171.829V207.224H173.026C173.95 207.224 174.426 206.746 174.426 205.928Z" fill="#263238"/>
<path d="M178.346 206.925V209.355H177.912V208.748C177.787 208.967 177.613 209.143 177.408 209.257C177.204 209.371 176.976 209.419 176.75 209.396C175.987 209.396 175.518 208.934 175.518 208.262C175.518 207.589 175.854 207.152 176.82 207.152H177.891V206.917C177.903 206.771 177.887 206.624 177.842 206.488C177.798 206.351 177.727 206.228 177.635 206.127C177.543 206.027 177.433 205.953 177.312 205.91C177.191 205.867 177.064 205.856 176.939 205.879C176.528 205.871 176.127 206.035 175.812 206.341L175.609 205.944C176.007 205.583 176.503 205.396 177.009 205.418C177.187 205.392 177.367 205.414 177.537 205.48C177.707 205.546 177.861 205.656 177.99 205.8C178.118 205.945 178.217 206.121 178.278 206.316C178.34 206.51 178.363 206.718 178.346 206.925ZM177.891 208.172V207.532H176.834C176.176 207.532 175.966 207.832 175.966 208.237C175.966 208.642 176.281 208.975 176.82 208.975C177.049 208.99 177.276 208.921 177.469 208.777C177.662 208.632 177.81 208.421 177.891 208.172Z" fill="#263238"/>
<path d="M179.116 208.902L179.326 208.488C179.675 208.777 180.094 208.93 180.523 208.926C181.167 208.926 181.433 208.675 181.433 208.286C181.433 207.265 179.242 208.075 179.242 206.528C179.242 205.888 179.718 205.41 180.579 205.41C180.997 205.404 181.408 205.53 181.769 205.774L181.573 206.195C181.278 205.972 180.932 205.857 180.579 205.863C179.963 205.863 179.697 206.139 179.697 206.511C179.697 207.565 181.888 206.771 181.888 208.27C181.888 208.95 181.37 209.388 180.488 209.388C179.997 209.401 179.516 209.231 179.116 208.902Z" fill="#263238"/>
<path d="M182.259 208.902L182.462 208.488C182.815 208.774 183.235 208.926 183.666 208.926C184.303 208.926 184.569 208.675 184.569 208.286C184.569 207.265 182.378 208.075 182.378 206.528C182.378 205.888 182.854 205.41 183.715 205.41C184.135 205.405 184.548 205.531 184.912 205.774L184.709 206.195C184.415 205.97 184.068 205.854 183.715 205.863C183.106 205.863 182.833 206.139 182.833 206.511C182.833 207.565 185.024 206.771 185.024 208.27C185.024 208.95 184.513 209.388 183.624 209.388C183.135 209.403 182.656 209.232 182.259 208.902Z" fill="#263238"/>
<path d="M190.757 205.442L189.483 209.347H189.049L187.985 206.147L186.9 209.347H186.466L185.199 205.442H185.633L186.69 208.764L187.775 205.442H188.167L189.245 208.764L190.316 205.442H190.757Z" fill="#263238"/>
<path d="M191.009 207.395C191.01 207.003 191.112 206.62 191.301 206.295C191.49 205.97 191.758 205.716 192.071 205.567C192.384 205.418 192.728 205.379 193.06 205.456C193.392 205.533 193.697 205.722 193.937 205.999C194.176 206.276 194.339 206.629 194.406 207.014C194.472 207.398 194.439 207.796 194.31 208.159C194.181 208.521 193.962 208.831 193.681 209.05C193.4 209.269 193.07 209.386 192.731 209.388C192.503 209.398 192.275 209.354 192.062 209.257C191.849 209.16 191.655 209.014 191.494 208.827C191.332 208.64 191.205 208.416 191.122 208.169C191.039 207.923 191 207.659 191.009 207.395ZM193.977 207.395C193.965 207.111 193.881 206.838 193.735 206.609C193.59 206.38 193.39 206.206 193.16 206.107C192.93 206.009 192.68 205.991 192.441 206.055C192.202 206.12 191.984 206.264 191.816 206.47C191.647 206.677 191.534 206.936 191.492 207.215C191.449 207.495 191.478 207.783 191.576 208.044C191.673 208.304 191.835 208.526 192.04 208.682C192.245 208.837 192.486 208.919 192.731 208.918C192.901 208.921 193.07 208.882 193.227 208.806C193.384 208.729 193.525 208.616 193.643 208.472C193.76 208.329 193.85 208.16 193.907 207.974C193.965 207.789 193.989 207.591 193.977 207.395Z" fill="#263238"/>
<path d="M197.078 205.41V205.928H196.966C196.805 205.918 196.645 205.949 196.496 206.019C196.347 206.089 196.214 206.197 196.105 206.334C195.997 206.471 195.916 206.635 195.869 206.813C195.821 206.99 195.809 207.178 195.832 207.362V209.355H195.37V205.45H195.811V206.212C195.927 205.945 196.11 205.726 196.337 205.583C196.563 205.44 196.821 205.379 197.078 205.41Z" fill="#263238"/>
<path d="M200.942 203.838V209.347H200.508V208.578C200.373 208.835 200.181 209.046 199.952 209.188C199.723 209.331 199.466 209.4 199.206 209.388C198.769 209.356 198.359 209.132 198.06 208.762C197.76 208.393 197.594 207.905 197.594 207.399C197.594 206.892 197.76 206.404 198.06 206.035C198.359 205.665 198.769 205.442 199.206 205.41C199.462 205.403 199.715 205.474 199.94 205.617C200.165 205.759 200.353 205.967 200.487 206.22V203.87L200.942 203.838ZM200.494 207.395C200.482 207.111 200.398 206.838 200.253 206.61C200.108 206.381 199.908 206.206 199.678 206.108C199.449 206.009 199.199 205.991 198.96 206.055C198.721 206.118 198.504 206.262 198.335 206.467C198.166 206.673 198.053 206.931 198.009 207.21C197.966 207.49 197.994 207.777 198.091 208.038C198.187 208.299 198.347 208.521 198.552 208.678C198.756 208.834 198.996 208.918 199.241 208.918C199.412 208.922 199.582 208.884 199.739 208.808C199.897 208.732 200.039 208.619 200.157 208.475C200.275 208.332 200.366 208.162 200.424 207.976C200.482 207.79 200.506 207.592 200.494 207.395Z" fill="#263238"/>
</g>
<path d="M241.598 157.021H150.01V175.171H241.598V157.021Z" fill="white"/>
<g opacity="0.4">
<path d="M154.63 165.74C154.615 165.196 154.74 164.66 154.99 164.199C155.239 163.739 155.602 163.375 156.032 163.154C156.461 162.934 156.938 162.867 157.4 162.962C157.863 163.057 158.29 163.31 158.628 163.688C158.965 164.066 159.198 164.552 159.295 165.084C159.393 165.616 159.351 166.17 159.175 166.674C158.999 167.178 158.697 167.61 158.307 167.914C157.918 168.218 157.459 168.381 156.989 168.381C156.682 168.397 156.376 168.339 156.089 168.213C155.801 168.087 155.54 167.895 155.319 167.648C155.098 167.4 154.923 167.104 154.805 166.776C154.686 166.448 154.627 166.095 154.63 165.74ZM158.872 165.74C158.877 165.305 158.771 164.879 158.567 164.515C158.362 164.151 158.068 163.865 157.723 163.695C157.378 163.525 156.997 163.477 156.628 163.558C156.259 163.64 155.92 163.846 155.653 164.152C155.386 164.457 155.204 164.848 155.13 165.273C155.055 165.699 155.092 166.141 155.235 166.542C155.379 166.944 155.622 167.287 155.934 167.528C156.246 167.769 156.614 167.897 156.989 167.895C157.239 167.91 157.489 167.864 157.723 167.762C157.958 167.659 158.171 167.502 158.351 167.3C158.53 167.098 158.671 166.855 158.766 166.586C158.86 166.318 158.906 166.03 158.9 165.74H158.872Z" fill="#263238"/>
<path d="M160.3 162.823H160.755V168.341H160.3V162.823Z" fill="#263238"/>
<path d="M165.123 162.823V168.341H164.689V167.53C164.553 167.786 164.361 167.996 164.132 168.139C163.904 168.281 163.646 168.351 163.387 168.341C162.932 168.341 162.496 168.131 162.174 167.759C161.853 167.387 161.672 166.882 161.672 166.356C161.672 165.829 161.853 165.324 162.174 164.952C162.496 164.58 162.932 164.37 163.387 164.37C163.643 164.365 163.896 164.436 164.12 164.578C164.345 164.721 164.534 164.928 164.668 165.181V162.831L165.123 162.823ZM164.675 166.38C164.664 166.094 164.581 165.818 164.435 165.587C164.29 165.356 164.089 165.179 163.858 165.079C163.626 164.978 163.375 164.959 163.134 165.023C162.893 165.087 162.674 165.232 162.504 165.439C162.333 165.646 162.219 165.907 162.176 166.188C162.132 166.47 162.161 166.76 162.259 167.022C162.357 167.285 162.519 167.508 162.726 167.665C162.933 167.822 163.175 167.904 163.422 167.903C163.592 167.906 163.762 167.868 163.919 167.791C164.076 167.714 164.218 167.601 164.336 167.458C164.453 167.315 164.544 167.145 164.602 166.96C164.661 166.774 164.685 166.577 164.675 166.38Z" fill="#263238"/>
<path d="M171.689 164.921C171.689 166.023 170.989 166.696 169.855 166.696H168.651V168.316H168.175V163.139H169.855C170.996 163.139 171.689 163.803 171.689 164.921ZM171.213 164.921C171.213 164.111 170.737 163.609 169.813 163.609H168.623V166.21H169.813C170.737 166.21 171.213 165.74 171.213 164.921Z" fill="#263238"/>
<path d="M175.14 165.918V168.349H174.699V167.733C174.574 167.952 174.4 168.128 174.195 168.242C173.99 168.356 173.763 168.404 173.537 168.381C172.774 168.381 172.305 167.919 172.305 167.247C172.305 166.574 172.641 166.137 173.607 166.137H174.685V165.902C174.685 165.229 174.356 164.865 173.726 164.865C173.315 164.859 172.916 165.023 172.599 165.327L172.396 164.938C172.792 164.572 173.29 164.385 173.796 164.411C173.974 164.386 174.155 164.407 174.325 164.474C174.495 164.54 174.65 164.649 174.778 164.793C174.907 164.938 175.007 165.114 175.069 165.308C175.132 165.503 175.156 165.711 175.14 165.918ZM174.685 167.166V166.526H173.6C172.949 166.526 172.732 166.825 172.732 167.222C172.732 167.62 173.047 167.96 173.586 167.96C173.819 167.982 174.051 167.917 174.249 167.773C174.447 167.63 174.6 167.417 174.685 167.166Z" fill="#263238"/>
<path d="M175.91 167.919L176.113 167.498C176.464 167.789 176.886 167.942 177.317 167.936C177.954 167.936 178.22 167.684 178.22 167.304C178.22 166.283 176.029 167.085 176.029 165.537C176.029 164.897 176.505 164.427 177.366 164.427C177.786 164.419 178.2 164.545 178.563 164.792L178.36 165.213C178.065 164.988 177.719 164.872 177.366 164.881C176.757 164.881 176.484 165.148 176.484 165.521C176.484 166.582 178.675 165.78 178.675 167.287C178.675 167.96 178.164 168.397 177.275 168.397C176.787 168.414 176.308 168.247 175.91 167.919Z" fill="#263238"/>
<path d="M179.046 167.919L179.256 167.498C179.603 167.79 180.023 167.944 180.453 167.936C181.097 167.936 181.356 167.684 181.356 167.304C181.356 166.283 179.172 167.085 179.172 165.537C179.172 164.897 179.648 164.427 180.502 164.427C180.923 164.417 181.337 164.543 181.699 164.792L181.503 165.213C181.206 164.989 180.857 164.873 180.502 164.881C179.893 164.881 179.627 165.148 179.627 165.521C179.627 166.582 181.818 165.78 181.818 167.287C181.818 167.96 181.3 168.397 180.418 168.397C179.928 168.413 179.447 168.246 179.046 167.919Z" fill="#263238"/>
<path d="M187.544 164.427L186.27 168.341H185.843L184.772 165.1L183.708 168.341H183.281L182 164.427H182.434L183.498 167.749L184.583 164.427H184.975L186.053 167.749L187.124 164.427H187.544Z" fill="#263238"/>
<path d="M187.796 166.38C187.796 165.986 187.897 165.6 188.086 165.272C188.275 164.945 188.544 164.689 188.859 164.538C189.174 164.387 189.52 164.348 189.854 164.425C190.188 164.502 190.495 164.692 190.736 164.97C190.976 165.249 191.14 165.604 191.207 165.991C191.273 166.378 191.239 166.778 191.109 167.143C190.979 167.507 190.758 167.818 190.475 168.037C190.191 168.256 189.858 168.373 189.518 168.373C189.289 168.383 189.062 168.339 188.849 168.242C188.636 168.146 188.442 167.999 188.281 167.812C188.119 167.625 187.992 167.401 187.909 167.155C187.826 166.908 187.787 166.644 187.796 166.38ZM190.771 166.38C190.76 166.094 190.677 165.818 190.531 165.587C190.386 165.356 190.185 165.179 189.954 165.079C189.723 164.979 189.471 164.959 189.23 165.023C188.989 165.087 188.77 165.232 188.6 165.439C188.429 165.646 188.315 165.907 188.272 166.188C188.228 166.47 188.257 166.76 188.355 167.022C188.453 167.285 188.615 167.508 188.822 167.665C189.029 167.822 189.271 167.904 189.518 167.903C189.689 167.907 189.858 167.87 190.016 167.793C190.174 167.717 190.316 167.604 190.434 167.461C190.552 167.317 190.643 167.147 190.701 166.961C190.759 166.775 190.783 166.577 190.771 166.38Z" fill="#263238"/>
<path d="M193.9 164.403V164.913H193.788C193.627 164.904 193.467 164.936 193.318 165.008C193.169 165.079 193.036 165.187 192.927 165.325C192.819 165.463 192.738 165.627 192.691 165.805C192.644 165.983 192.631 166.171 192.654 166.355V168.349H192.199V164.435H192.633V165.205C192.75 164.939 192.933 164.721 193.16 164.578C193.386 164.434 193.644 164.374 193.9 164.403Z" fill="#263238"/>
<path d="M197.736 162.823V168.341H197.302V167.53C197.165 167.787 196.972 167.997 196.742 168.14C196.512 168.282 196.253 168.351 195.993 168.341C195.538 168.341 195.102 168.131 194.78 167.759C194.459 167.387 194.278 166.882 194.278 166.356C194.278 165.829 194.459 165.324 194.78 164.952C195.102 164.58 195.538 164.37 195.993 164.37C196.25 164.366 196.503 164.438 196.729 164.58C196.954 164.722 197.145 164.929 197.281 165.181V162.831L197.736 162.823ZM197.288 166.38C197.277 166.094 197.194 165.818 197.048 165.587C196.903 165.356 196.702 165.179 196.471 165.079C196.239 164.978 195.988 164.959 195.747 165.023C195.506 165.087 195.287 165.232 195.117 165.439C194.946 165.646 194.832 165.907 194.789 166.188C194.745 166.47 194.774 166.76 194.872 167.022C194.97 167.285 195.132 167.508 195.339 167.665C195.546 167.822 195.788 167.904 196.035 167.903C196.205 167.906 196.375 167.868 196.532 167.791C196.689 167.714 196.831 167.601 196.949 167.458C197.066 167.315 197.157 167.145 197.215 166.96C197.274 166.774 197.298 166.577 197.288 166.38Z" fill="#263238"/>
</g>
<path d="M252.7 113.284C254.883 108.881 258.487 105.66 262.719 104.33C266.952 102.999 271.467 103.667 275.275 106.186L274.575 107.556L279.265 106.081L277.991 100.652L277.291 102.014C273.041 99.1944 268.066 98.2117 263.249 99.2402C258.432 100.269 254.086 103.242 250.985 107.63C247.884 112.019 246.229 117.539 246.313 123.207C246.398 128.876 248.217 134.326 251.447 138.588L254.569 135.42C252.304 132.416 250.906 128.667 250.571 124.699C250.236 120.73 250.98 116.739 252.7 113.284Z" fill="#263238"/>
<path d="M282.8 107.305L279.65 110.392C282.169 113.827 283.561 118.18 283.58 122.686C283.599 127.192 282.245 131.561 279.756 135.025C277.267 138.489 273.802 140.826 269.971 141.624C266.14 142.423 262.188 141.632 258.811 139.39L259.511 138.021L254.8 139.561L256.074 144.989L256.774 143.62C261.002 146.404 265.941 147.375 270.726 146.364C275.51 145.354 279.835 142.425 282.94 138.092C286.045 133.759 287.733 128.298 287.708 122.669C287.682 117.039 285.945 111.599 282.8 107.305Z" fill="#263238"/>
<g opacity="0.6">
<path d="M252.7 113.284C254.883 108.881 258.487 105.66 262.719 104.33C266.952 102.999 271.467 103.667 275.275 106.186L274.575 107.556L279.265 106.081L277.991 100.652L277.291 102.014C273.041 99.1944 268.066 98.2117 263.249 99.2402C258.432 100.269 254.086 103.242 250.985 107.63C247.884 112.019 246.229 117.539 246.313 123.207C246.398 128.876 248.217 134.326 251.447 138.588L254.569 135.42C252.304 132.416 250.906 128.667 250.571 124.699C250.236 120.73 250.98 116.739 252.7 113.284Z" fill="white"/>
<path d="M282.8 107.305L279.65 110.392C282.169 113.827 283.561 118.18 283.58 122.686C283.599 127.192 282.245 131.561 279.756 135.025C277.267 138.489 273.802 140.826 269.971 141.624C266.14 142.423 262.188 141.632 258.811 139.39L259.511 138.021L254.8 139.561L256.074 144.989L256.774 143.62C261.002 146.404 265.941 147.375 270.726 146.364C275.51 145.354 279.835 142.425 282.94 138.092C286.045 133.759 287.733 128.298 287.708 122.669C287.682 117.039 285.945 111.599 282.8 107.305Z" fill="white"/>
</g>
<path d="M264.054 100.093H259.49V83.8882C259.49 80.9077 258.467 78.0492 256.646 75.9417C254.826 73.8341 252.356 72.6501 249.781 72.6501C247.206 72.6501 244.737 73.8341 242.916 75.9417C241.095 78.0492 240.072 80.9077 240.072 83.8882V100.093H235.508V83.8882C235.508 79.5066 237.012 75.3044 239.689 72.2061C242.365 69.1078 245.996 67.3672 249.781 67.3672C253.566 67.3672 257.197 69.1078 259.874 72.2061C262.55 75.3044 264.054 79.5066 264.054 83.8882V100.093Z" fill="#263238"/>
<g opacity="0.3">
<path d="M264.054 100.093H259.49V83.8882C259.49 80.9077 258.467 78.0492 256.646 75.9417C254.826 73.8341 252.356 72.6501 249.781 72.6501C247.206 72.6501 244.737 73.8341 242.916 75.9417C241.095 78.0492 240.072 80.9077 240.072 83.8882V100.093H235.508V83.8882C235.508 79.5066 237.012 75.3044 239.689 72.2061C242.365 69.1078 245.996 67.3672 249.781 67.3672C253.566 67.3672 257.197 69.1078 259.874 72.2061C262.55 75.3044 264.054 79.5066 264.054 83.8882V100.093Z" fill="white"/>
</g>
<path d="M269.283 95.969V122.489C269.283 122.893 269.214 123.293 269.081 123.667C268.947 124.04 268.751 124.38 268.504 124.666C268.257 124.952 267.964 125.178 267.641 125.333C267.318 125.488 266.972 125.567 266.623 125.567H232.925C232.577 125.566 232.232 125.486 231.91 125.331C231.589 125.175 231.297 124.948 231.051 124.662C230.805 124.376 230.611 124.037 230.478 123.664C230.346 123.291 230.278 122.892 230.279 122.489V95.969C230.278 95.5658 230.346 95.1662 230.478 94.7933C230.611 94.4203 230.805 94.0812 231.051 93.7952C231.297 93.5093 231.589 93.2822 231.91 93.1269C232.232 92.9716 232.577 92.8912 232.925 92.8901H266.623C267.064 92.8865 267.498 93.0148 267.883 93.2628C268.307 93.5238 268.661 93.9137 268.908 94.3906C269.155 94.8674 269.285 95.4132 269.283 95.969Z" fill="#9C90C2"/>
<path opacity="0.2" d="M267.883 93.2628V119.248C267.883 119.651 267.814 120.051 267.68 120.425C267.547 120.798 267.351 121.137 267.104 121.422C266.856 121.707 266.563 121.933 266.24 122.087C265.918 122.241 265.572 122.319 265.223 122.318H231.525C231.09 122.32 230.661 122.195 230.279 121.954V95.969C230.278 95.5658 230.346 95.1662 230.478 94.7933C230.611 94.4203 230.805 94.0812 231.051 93.7952C231.297 93.5093 231.589 93.2822 231.91 93.1269C232.232 92.9716 232.577 92.8912 232.925 92.8901H266.623C267.064 92.8865 267.498 93.0148 267.883 93.2628Z" fill="white"/>
<path opacity="0.5" d="M254.8 105.903C254.787 104.845 254.525 103.812 254.042 102.914C253.56 102.016 252.874 101.288 252.06 100.808C251.246 100.328 250.334 100.114 249.423 100.189C248.512 100.265 247.635 100.627 246.889 101.236C246.142 101.846 245.553 102.68 245.186 103.648C244.819 104.616 244.687 105.682 244.804 106.731C244.922 107.78 245.284 108.772 245.853 109.6C246.422 110.427 247.175 111.06 248.031 111.429L247.8 118.494H251.811L251.216 111.566C252.259 111.193 253.171 110.44 253.817 109.42C254.462 108.4 254.807 107.167 254.8 105.903Z" fill="black"/>
<path d="M89.1592 113.284L91.4832 121.929L93.8002 113.284H89.1592Z" fill="#9C90C2"/>
<path d="M110.481 92.6309H72.4781C69.1572 92.6309 66.4651 95.747 66.4651 99.5909V108.966C66.4651 112.809 69.1572 115.926 72.4781 115.926H110.481C113.802 115.926 116.494 112.809 116.494 108.966V99.5909C116.494 95.747 113.802 92.6309 110.481 92.6309Z" fill="#9C90C2"/>
<path d="M78.2252 104.266L79.5412 105.125L79.1982 105.822L77.8612 104.914V106.656H77.1612V104.914L75.8242 105.822L75.4812 105.125L76.8112 104.266L75.4812 103.456L75.8242 102.743L77.1612 103.65V101.884H77.8612V103.61L79.1982 102.702L79.5412 103.415L78.2252 104.266Z" fill="white"/>
<path d="M82.873 104.266L84.189 105.125L83.846 105.822L82.509 104.914V106.656H81.851V104.914L80.5 105.822L80.157 105.125L81.487 104.266L80.157 103.456L80.5 102.743L81.837 103.65V101.884H82.495V103.61L83.832 102.702L84.175 103.415L82.873 104.266Z" fill="white"/>
<path d="M87.5001 104.266L88.8161 105.125L88.4731 105.822L87.1361 104.914V106.656H86.4361V104.914L85.0991 105.822L84.7561 105.125L86.0791 104.266L84.7561 103.456L85.0991 102.743L86.4361 103.65V101.924H87.1361V103.65L88.4731 102.743L88.8161 103.456L87.5001 104.266Z" fill="white"/>
<path d="M92.1692 104.266L93.4852 105.125L93.1422 105.822L91.8052 104.914V106.656H91.1402V104.914L89.8032 105.822L89.4602 105.125L90.7832 104.266L89.4602 103.456L89.8032 102.743L91.1402 103.65V101.924H91.8052V103.65L93.1422 102.743L93.4852 103.456L92.1692 104.266Z" fill="white"/>
<path d="M96.8171 104.266L98.1331 105.125L97.7901 105.822L96.4461 104.914V106.656H95.7461V104.914L94.5001 105.822L94.1501 105.125L95.4801 104.266L94.1501 103.456L94.5001 102.743L95.8371 103.65V101.924H96.5371V103.65L97.8811 102.743L98.2242 103.456L96.8171 104.266Z" fill="white"/>
<path d="M101.458 104.266L102.781 105.125L102.438 105.822L101.094 104.914V106.656H100.429V104.914L99.0852 105.822L98.7422 105.125L100.072 104.266L98.7422 103.456L99.0852 102.743L100.429 103.65V101.924H101.094V103.65L102.438 102.743L102.781 103.456L101.458 104.266Z" fill="white"/>
<path d="M106.106 104.266L107.422 105.125L107.079 105.822L105.742 104.914V106.656H105.042V104.914L103.705 105.822L103.362 105.125L104.692 104.266L103.362 103.456L103.705 102.743L105.042 103.65V101.884H105.742V103.61L107.079 102.702L107.422 103.415L106.106 104.266Z" fill="white"/>
<path d="M121.849 173.648L126.119 170.447L121.31 167.028C121.31 167.028 117.649 170.147 119.119 172.262L121.849 173.648Z" fill="#B55B52"/>
<path d="M128.31 165.189L123.312 163.876L121.31 167.028L126.119 170.447L128.31 165.189Z" fill="#B55B52"/>
<path d="M104.3 163.26C107.002 167.992 109.711 173.745 113.4 177.432C113.47 177.496 113.442 177.432 113.169 177.432C113.029 177.472 113.099 177.553 113.386 177.432C114.226 176.877 114.965 176.14 115.563 175.26C116.932 173.34 118.15 171.282 119.203 169.11C119.252 169.021 119.203 169.11 119.203 169.208C119.185 169.355 119.185 169.505 119.203 169.653C119.266 169.726 119.042 169.515 119.476 170.625C119.681 170.98 119.971 171.256 120.311 171.419C120.652 171.582 121.026 171.624 121.387 171.541C121.618 171.483 121.836 171.371 122.028 171.21C122.219 171.05 122.38 170.845 122.5 170.609C122.39 170.759 122.292 170.919 122.206 171.087L119.07 169.54C119.146 169.024 119.328 168.538 119.602 168.122C119.855 167.792 120.19 167.56 120.561 167.457C120.925 167.375 121.301 167.419 121.644 167.583C121.986 167.747 122.279 168.025 122.486 168.381C122.92 169.499 122.703 169.289 122.766 169.37C122.774 169.628 122.753 169.887 122.703 170.139C121.604 175.544 118.734 184.448 112.784 184.497C108.584 184.051 105.399 178.712 103.04 175.341C101.366 172.746 99.8231 170.041 98.4199 167.239L104.265 163.268L104.3 163.26Z" fill="#B55B52"/>
<path d="M102.144 159.703C104.944 160.773 110.621 175.706 110.621 175.706L100.975 181.005C100.975 181.005 99.015 169.272 99.4 165.488C99.6414 163.225 100.623 161.154 102.144 159.703Z" fill="#9C90C2"/>
<path opacity="0.7" d="M102.144 159.703C104.944 160.773 110.621 175.706 110.621 175.706L100.975 181.005C100.975 181.005 99.015 169.272 99.4 165.488C99.6414 163.225 100.623 161.154 102.144 159.703Z" fill="white"/>
<path d="M113.484 332.829L108.57 334.442L107.401 325.586L106.771 320.854L111.685 319.242L112.525 325.586L113.484 332.829Z" fill="#B55B52"/>
<path d="M85.2318 333.291L80.1638 334.069L80.1148 325.586L80.0798 320.311L85.1548 319.549L85.1898 325.586L85.2318 333.291Z" fill="#B55B52"/>
<path opacity="0.2" d="M85.1548 319.549L85.1898 325.586H80.1148L80.0798 320.311L85.1548 319.549Z" fill="black"/>
<path opacity="0.2" d="M112.525 325.586H107.401L106.771 320.854L111.685 319.242L112.525 325.586Z" fill="black"/>
<path d="M113.4 331.938L107.8 331.768C107.698 331.764 107.598 331.801 107.517 331.871C107.436 331.942 107.377 332.043 107.352 332.157L106.183 337.359C106.146 337.484 106.136 337.618 106.155 337.749C106.173 337.879 106.219 338.003 106.288 338.108C106.357 338.214 106.447 338.298 106.551 338.354C106.655 338.41 106.769 338.435 106.883 338.428C108.899 338.428 111.783 338.428 114.338 338.485C117.299 338.582 119.182 338.412 122.654 338.485C124.754 338.55 125.405 336.127 124.537 335.876C120.568 334.742 117.978 334.969 114.597 332.408C114.243 332.127 113.829 331.965 113.4 331.938Z" fill="#263238"/>
<path d="M113.827 332.659C113.823 332.63 113.826 332.601 113.838 332.574C113.849 332.548 113.867 332.527 113.89 332.513C114.128 332.384 116.221 331.241 116.83 331.663C116.888 331.701 116.935 331.757 116.969 331.824C117.002 331.891 117.019 331.966 117.019 332.044C117.026 332.171 117.006 332.298 116.962 332.415C116.919 332.531 116.852 332.635 116.767 332.716C116.193 333.267 114.737 332.991 113.918 332.773C113.894 332.768 113.873 332.754 113.856 332.733C113.84 332.713 113.83 332.687 113.827 332.659ZM114.324 332.594C115.451 332.846 116.291 332.813 116.613 332.497C116.67 332.446 116.715 332.379 116.743 332.303C116.771 332.226 116.782 332.142 116.774 332.06C116.776 332.029 116.771 331.998 116.758 331.971C116.746 331.944 116.727 331.921 116.704 331.906H116.662C116.277 331.719 115.15 332.173 114.324 332.594Z" fill="#9C90C2"/>
<path d="M113.869 332.748C113.852 332.736 113.839 332.717 113.831 332.695C113.824 332.674 113.822 332.65 113.827 332.627C113.9 331.792 114.202 331.006 114.688 330.383C114.784 330.29 114.896 330.222 115.017 330.184C115.138 330.147 115.264 330.14 115.388 330.164C115.717 330.212 115.808 330.407 115.829 330.569C115.899 331.233 114.639 332.473 114.009 332.773C113.981 332.781 113.952 332.781 113.925 332.773L113.869 332.748ZM115.332 330.439C115.244 330.426 115.154 330.433 115.069 330.461C114.983 330.489 114.904 330.536 114.835 330.601C114.447 331.1 114.202 331.726 114.135 332.392C114.779 331.979 115.64 331.006 115.591 330.601C115.591 330.601 115.591 330.512 115.486 330.472L115.332 330.439Z" fill="#9C90C2"/>
<path d="M85.029 331.938L79.429 331.768C79.3273 331.764 79.2275 331.801 79.146 331.871C79.0646 331.942 79.0064 332.043 78.981 332.157L77.805 337.359C77.7763 337.484 77.7725 337.615 77.7941 337.742C77.8156 337.869 77.8619 337.988 77.9294 338.091C77.9969 338.194 78.0838 338.278 78.1836 338.337C78.2833 338.395 78.3932 338.426 78.505 338.428C80.514 338.428 83.405 338.428 85.96 338.485C88.921 338.582 90.797 338.412 94.269 338.485C96.369 338.55 97.027 336.127 96.152 335.876C92.19 334.742 89.593 334.969 86.219 332.408C85.8664 332.13 85.4551 331.967 85.029 331.938Z" fill="#263238"/>
<path d="M85.3999 332.659C85.3962 332.629 85.401 332.599 85.4137 332.573C85.4263 332.546 85.4461 332.526 85.4699 332.513C85.7079 332.384 87.7939 331.241 88.4029 331.663C88.4606 331.701 88.5085 331.757 88.5417 331.824C88.5749 331.891 88.5922 331.966 88.5919 332.044C88.5994 332.17 88.5811 332.297 88.5385 332.413C88.496 332.53 88.4303 332.634 88.3469 332.716C87.7659 333.267 86.3099 332.991 85.4909 332.773C85.4681 332.766 85.4474 332.751 85.4313 332.731C85.4152 332.711 85.4043 332.686 85.3999 332.659ZM85.9039 332.594C87.0239 332.846 87.8709 332.813 88.1929 332.497C88.2489 332.445 88.2929 332.378 88.321 332.302C88.3491 332.226 88.3604 332.142 88.3539 332.06C88.3538 332.028 88.3467 331.998 88.3332 331.971C88.3197 331.944 88.3003 331.921 88.2769 331.906H88.2349C87.8849 331.719 86.7579 332.173 85.9319 332.594H85.9039Z" fill="#9C90C2"/>
<path d="M85.4769 332.748C85.4593 332.736 85.4453 332.718 85.4366 332.696C85.4279 332.675 85.4249 332.65 85.4279 332.627C85.5047 331.791 85.8087 331.005 86.2959 330.382C86.3918 330.289 86.5041 330.221 86.625 330.184C86.7459 330.146 86.8725 330.139 86.9959 330.164C87.3249 330.212 87.4159 330.407 87.4299 330.569C87.5069 331.233 86.2399 332.473 85.6169 332.773C85.587 332.781 85.5558 332.781 85.5259 332.773L85.4769 332.748ZM86.9399 330.439C86.8519 330.425 86.7623 330.432 86.6768 330.46C86.5912 330.488 86.5116 330.536 86.4429 330.601C86.0581 331.102 85.814 331.727 85.7429 332.392C86.3869 331.979 87.2479 331.006 87.2059 330.601C87.1999 330.569 87.1861 330.54 87.1663 330.517C87.1464 330.494 87.1213 330.479 87.0939 330.472C87.0447 330.45 86.9925 330.439 86.9399 330.439Z" fill="#9C90C2"/>
<path d="M74.7809 204.38C72.0929 217.847 76.6989 323.803 76.6989 323.803H85.6029L89.4109 235.486L103.411 323.803L112.931 322.993C106.708 254.592 101.213 213.755 101.213 213.755V208.594L74.7809 204.38Z" fill="#263238"/>
<path opacity="0.2" d="M112.945 322.977L103.425 323.787L92.3998 254.268L89.4178 235.478L85.6098 323.795H76.7058C76.7058 323.795 72.0998 217.823 74.7808 204.38L101.241 208.602V213.763C101.241 213.763 106.722 254.616 112.945 322.977Z" fill="white"/>
<path d="M74.2 158.836C75.1324 165.194 75.6542 171.624 75.761 178.072C75.852 182.569 75.761 186.847 75.628 190.72C75.278 199.803 74.522 206.673 74.557 209.031L101.269 209.582C107.639 177.253 102.165 159.703 102.165 159.703C100.094 159.038 97.9902 158.518 95.8649 158.148C95.3983 158.077 94.9316 158.013 94.4649 157.953C90.6874 157.621 86.8965 157.539 83.111 157.71C82.411 157.71 81.662 157.783 80.955 157.848C77.385 158.196 74.2 158.836 74.2 158.836Z" fill="#9C90C2"/>
<path d="M95.3328 159.007C95.3328 159.007 93.7438 161.672 92.4698 161.859C90.6638 162.142 84.0698 157.467 84.0698 157.467C85.5958 156.163 86.3448 153.319 86.6738 150.313C86.9092 147.873 86.9537 145.413 86.8068 142.964L92.9738 150.726C92.1618 153.157 91.6788 155.749 93.2748 157.572C93.8615 158.22 94.5641 158.709 95.3328 159.007Z" fill="#B55B52"/>
<path opacity="0.2" d="M93.2609 157.548C90.5443 155.832 88.2673 153.317 86.6599 150.256C86.8952 147.816 86.9398 145.356 86.7929 142.907L92.9599 150.669C92.1479 153.124 91.6999 155.766 93.2609 157.548Z" fill="black"/>
<path d="M100.1 135.963C100.625 138.207 100.1 142.761 97.4959 141.14C94.8919 139.52 99.2249 132.09 100.1 135.963Z" fill="#263238"/>
<path d="M86.184 138.272C85.673 143.944 85.127 147.266 87.178 150.612C90.272 155.636 96.677 154.137 98.644 148.716C100.422 143.855 100.954 135.347 96.495 132.236C95.5056 131.548 94.3816 131.161 93.228 131.112C92.0745 131.064 90.9291 131.354 89.8991 131.957C88.869 132.561 87.9879 133.456 87.3382 134.56C86.6885 135.665 86.2914 136.942 86.184 138.272Z" fill="#B55B52"/>
<path d="M89.754 135.339L89.999 128.962C89.999 128.962 84.147 128.152 84.28 131.652C80.962 133.354 82.278 139.277 86.534 142.364C89.012 140.274 88.935 134.918 88.935 134.918C89.187 135.064 89.467 135.201 89.754 135.339Z" fill="#263238"/>
<path d="M83.6288 142.607C83.7185 143.311 83.9281 143.987 84.2453 144.596C84.5625 145.205 84.9812 145.735 85.4768 146.156C86.8068 147.274 88.0598 146.043 88.1718 144.244C88.2768 142.623 87.7098 140.087 86.1418 139.682C85.7959 139.603 85.4386 139.624 85.1015 139.744C84.7644 139.863 84.4579 140.077 84.2094 140.366C83.9608 140.656 83.7777 141.012 83.6765 141.403C83.5752 141.793 83.5588 142.207 83.6288 142.607Z" fill="#B55B52"/>
<path d="M93.3729 141.181C93.3029 141.643 93.4639 142.048 93.7229 142.097C93.9819 142.145 94.2478 141.813 94.3108 141.351C94.3738 140.889 94.2198 140.484 93.9608 140.436C93.7018 140.387 93.4359 140.719 93.3729 141.181Z" fill="#263238"/>
<path d="M97.8669 141.991C97.8039 142.453 97.9649 142.866 98.2239 142.907C98.4829 142.947 98.7489 142.623 98.8119 142.161C98.8749 141.7 98.7209 141.294 98.4619 141.246C98.2029 141.197 97.9369 141.538 97.8669 141.991Z" fill="#263238"/>
<path d="M96.4039 141.991C96.7046 143.437 97.1757 144.827 97.8039 146.124C97.4976 146.281 97.1661 146.363 96.8309 146.363C96.4957 146.363 96.1642 146.281 95.8579 146.124L96.4039 141.991Z" fill="#A02724"/>
<path d="M93.4708 147.501C93.6378 147.562 93.8087 147.608 93.9818 147.639C94.0123 147.643 94.0433 147.634 94.0681 147.613C94.0929 147.592 94.1096 147.56 94.1148 147.525C94.1178 147.507 94.1177 147.488 94.1143 147.47C94.111 147.452 94.1046 147.435 94.0954 147.42C94.0863 147.405 94.0746 147.392 94.0611 147.382C94.0476 147.373 94.0325 147.366 94.0168 147.363C93.5227 147.287 93.0511 147.077 92.64 146.75C92.229 146.423 91.8902 145.99 91.6508 145.483C91.6455 145.466 91.6371 145.451 91.6263 145.438C91.6154 145.425 91.6023 145.414 91.5878 145.407C91.5733 145.4 91.5577 145.397 91.542 145.398C91.5263 145.398 91.5109 145.403 91.4968 145.41C91.4683 145.425 91.4457 145.451 91.4339 145.485C91.4221 145.518 91.4221 145.555 91.4338 145.589C91.6422 146.052 91.9306 146.46 92.281 146.789C92.6313 147.118 93.0363 147.36 93.4708 147.501Z" fill="#263238"/>
<path d="M92.2249 139.253C92.2648 139.268 92.3076 139.27 92.3484 139.259C92.3893 139.247 92.4265 139.223 92.4559 139.188C92.6671 138.944 92.9243 138.76 93.2073 138.65C93.4902 138.54 93.7913 138.508 94.0869 138.556C94.1168 138.564 94.1477 138.565 94.1779 138.559C94.2082 138.553 94.2371 138.54 94.2631 138.522C94.2891 138.503 94.3117 138.478 94.3295 138.449C94.3473 138.42 94.36 138.388 94.3669 138.353C94.3738 138.319 94.3747 138.283 94.3696 138.248C94.3646 138.213 94.3536 138.179 94.3374 138.149C94.3211 138.119 94.2999 138.093 94.2749 138.072C94.25 138.052 94.2217 138.037 94.1919 138.029C93.8206 137.956 93.4397 137.988 93.0814 138.122C92.723 138.256 92.398 138.488 92.1339 138.799C92.0894 138.851 92.0645 138.92 92.0645 138.993C92.0645 139.066 92.0894 139.136 92.1339 139.188C92.16 139.216 92.191 139.239 92.2249 139.253Z" fill="#263238"/>
<path d="M100.1 140.557C100.143 140.573 100.19 140.573 100.233 140.557C100.293 140.536 100.344 140.489 100.374 140.425C100.404 140.362 100.411 140.287 100.394 140.217C100.295 139.799 100.111 139.414 99.8562 139.097C99.6014 138.78 99.2839 138.538 98.931 138.394C98.8707 138.376 98.8067 138.385 98.7521 138.42C98.6975 138.454 98.6563 138.512 98.637 138.58C98.6196 138.65 98.6268 138.725 98.6569 138.789C98.6871 138.852 98.7378 138.9 98.798 138.92C99.0779 139.035 99.3289 139.228 99.5281 139.482C99.7273 139.737 99.8685 140.045 99.939 140.379C99.9512 140.422 99.9723 140.46 100 140.491C100.028 140.522 100.063 140.545 100.1 140.557Z" fill="#263238"/>
<path d="M84.2798 131.652C84.2798 131.652 81.2558 128.176 91.5178 128.492C101.78 128.808 103.488 135.469 98.7838 137.016L98.5738 135.931C97.7659 136.413 96.8784 136.69 95.9706 136.743C95.0627 136.796 94.1556 136.624 93.3098 136.238L94.0518 135.704C94.0518 135.704 87.0448 136.53 84.2798 131.652Z" fill="#263238"/>
<path d="M92.47 161.834C92.47 161.834 91.161 163.584 89.67 165.31C87.493 164.038 82.397 160.627 82.67 157.475C82.971 156.56 85.043 155.976 85.043 155.976C85.043 155.976 87.241 159.371 92.47 161.834Z" fill="#9C90C2"/>
<path d="M92.47 161.834C93.5409 162.833 94.4837 164.004 95.27 165.31C96.873 164.111 96.068 158.245 95.48 157.597C94.6322 157.061 93.681 156.782 92.715 156.786C93.0322 157.587 93.1757 158.466 93.133 159.346C93.0903 160.225 92.8627 161.08 92.47 161.834Z" fill="#9C90C2"/>
<g opacity="0.5">
<path d="M92.47 161.834C92.47 161.834 91.161 163.584 89.67 165.31C87.493 164.038 82.397 160.627 82.67 157.475C82.971 156.56 85.043 155.976 85.043 155.976C85.043 155.976 87.241 159.371 92.47 161.834Z" fill="white"/>
<path d="M92.47 161.834C93.5409 162.833 94.4837 164.004 95.27 165.31C96.873 164.111 96.068 158.245 95.48 157.597C94.6322 157.061 93.681 156.782 92.715 156.786C93.0322 157.587 93.1757 158.466 93.133 159.345C93.0903 160.225 92.8627 161.079 92.47 161.834Z" fill="white"/>
</g>
<path opacity="0.2" d="M92.4 254.268L89.418 235.478L89.992 225.536C89.992 225.536 94.073 242.778 92.4 254.268Z" fill="black"/>
<path d="M76.9999 167.417C74.4099 172.416 70.3989 179.571 68.2009 184.651C67.0319 187.527 66.6679 190.606 66.0309 193.71C65.4219 197.023 64.8129 200.402 64.1409 203.74L60.7949 203.4C60.6759 199.892 60.7039 196.416 60.8859 192.907C61.1169 189.253 61.2849 185.307 62.4749 181.839C64.8409 175.171 67.9559 169.208 71.2949 163.204L76.9999 167.433V167.417Z" fill="#B55B52"/>
<path d="M74.2 158.836C70.441 159.963 63.7 175.6 63.7 175.6L71.687 181.588L78.8899 173.486C79.3034 170.552 79.148 167.55 78.435 164.694C77.266 159.817 74.2 158.836 74.2 158.836Z" fill="#9C90C2"/>
<path opacity="0.7" d="M74.2 158.836C70.441 159.963 63.7 175.6 63.7 175.6L71.687 181.588L78.8899 173.486C79.3034 170.552 79.148 167.55 78.435 164.694C77.266 159.817 74.2 158.836 74.2 158.836Z" fill="white"/>
<path d="M77.0332 207.041L132.521 138.932C132.82 138.565 133.179 138.27 133.576 138.063C133.974 137.857 134.402 137.743 134.838 137.728C135.274 137.713 135.707 137.798 136.115 137.977C136.522 138.157 136.895 138.427 137.212 138.773L138.551 140.235C139.191 140.934 139.565 141.898 139.591 142.916C139.617 143.935 139.292 144.923 138.689 145.664L83.2005 213.773L77.0332 207.041Z" fill="#263238"/>
<path opacity="0.6" d="M77.0332 207.041L132.521 138.932C132.82 138.565 133.179 138.27 133.576 138.063C133.974 137.857 134.402 137.743 134.838 137.728C135.274 137.713 135.707 137.798 136.115 137.977C136.522 138.157 136.895 138.427 137.212 138.773L138.551 140.235C139.191 140.934 139.565 141.898 139.591 142.916C139.617 143.935 139.292 144.923 138.689 145.664L83.2005 213.773L77.0332 207.041Z" fill="white"/>
<path opacity="0.2" d="M137.62 139.228L138.551 140.241C138.868 140.586 139.123 141 139.301 141.46C139.48 141.919 139.578 142.414 139.591 142.918C139.604 143.421 139.532 143.923 139.377 144.393C139.223 144.864 138.989 145.295 138.691 145.662L83.2018 213.779L82.2778 212.767L137.767 144.649C138.065 144.282 138.298 143.851 138.452 143.379C138.605 142.908 138.678 142.407 138.664 141.903C138.65 141.4 138.551 140.904 138.372 140.445C138.193 139.986 137.937 139.573 137.62 139.228Z" fill="black"/>
<path d="M119.917 165.602L130.2 176.832L131.537 175.187L130.207 173.737L132.321 171.136L131.544 170.285L134.722 166.388L135.499 167.239L137.487 164.8L138.817 166.258L140.196 164.557L139.419 163.706L141.407 161.259L139.846 159.557L141.148 157.961L143.493 160.514L145.873 157.597L135.59 146.367L119.917 165.602Z" fill="#263238"/>
<path opacity="0.6" d="M119.917 165.602L130.2 176.832L131.537 175.187L130.207 173.737L132.321 171.136L131.544 170.285L134.722 166.388L135.499 167.239L137.487 164.8L138.817 166.258L140.196 164.557L139.419 163.706L141.407 161.259L139.846 159.557L141.148 157.961L143.493 160.514L145.873 157.597L135.59 146.367L119.917 165.602Z" fill="white"/>
<g opacity="0.2">
<path opacity="0.6" d="M130.61 174.185L129.275 175.824L130.202 176.836L131.537 175.197L130.61 174.185Z" fill="black"/>
<path opacity="0.6" d="M135.499 167.239L134.722 166.38L131.544 170.285L132.321 171.136L130.207 173.737L129.276 172.724L131.397 170.123L130.613 169.272L133.791 165.367L134.575 166.226L136.556 163.787L137.487 164.8L135.499 167.239Z" fill="black"/>
<path opacity="0.6" d="M138.488 162.685L140.483 160.246L141.414 161.259L139.419 163.706L140.203 164.557L138.817 166.258L137.893 165.245L139.272 163.544L138.488 162.685Z" fill="black"/>
<path opacity="0.6" d="M140.214 156.945L138.912 158.542L139.839 159.554L141.14 157.957L140.214 156.945Z" fill="black"/>
<path opacity="0.6" d="M144.944 156.589L142.562 159.513L143.489 160.525L145.871 157.601L144.944 156.589Z" fill="black"/>
</g>
<path d="M131.044 139.491L114.034 160.37C113.753 160.716 113.767 161.259 114.065 161.585L120.237 168.322C120.535 168.647 121.005 168.631 121.286 168.286L138.296 147.407C138.578 147.062 138.564 146.518 138.266 146.193L132.093 139.455C131.795 139.13 131.326 139.146 131.044 139.491Z" fill="#263238"/>
<path d="M83.5239 235.794C82.2329 237.379 80.6848 238.654 78.968 239.547C77.2512 240.439 75.3993 240.931 73.5181 240.995C71.6369 241.059 69.7633 240.694 68.0042 239.919C66.2451 239.145 64.635 237.977 63.2659 236.483L58.6179 231.41C57.2485 229.916 56.1468 228.124 55.3757 226.137C54.6046 224.15 54.1793 222.006 54.1241 219.829C54.0688 217.651 54.3847 215.483 55.0537 213.446C55.7226 211.41 56.7316 209.547 58.0229 207.962C59.315 206.37 60.8658 205.09 62.5864 204.194C64.307 203.297 66.1634 202.803 68.0494 202.739C69.9353 202.675 71.8136 203.043 73.5766 203.821C75.3395 204.599 76.9525 205.772 78.3229 207.273L82.9639 212.345C84.3309 213.842 85.4298 215.636 86.1978 217.625C86.9658 219.614 87.3879 221.758 87.4399 223.935C87.4919 226.113 87.1728 228.281 86.5009 230.315C85.829 232.35 84.8174 234.212 83.5239 235.794Z" fill="#263238"/>
<path d="M78.1829 229.96C77.5406 230.75 76.77 231.386 75.9153 231.831C75.0606 232.276 74.1386 232.521 73.2018 232.554C72.265 232.586 71.3319 232.404 70.4558 232.019C69.5797 231.634 68.7778 231.053 68.0959 230.309L63.6999 225.447C63.018 224.703 62.4694 223.811 62.0855 222.821C61.7017 221.831 61.49 220.764 61.4627 219.68C61.4354 218.595 61.593 217.515 61.9264 216.502C62.2598 215.488 62.7626 214.56 63.4059 213.771C64.0476 212.981 64.8178 212.346 65.6722 211.901C66.5266 211.456 67.4484 211.211 68.3849 211.179C69.3213 211.147 70.254 211.33 71.1293 211.717C72.0046 212.103 72.8055 212.686 73.4859 213.431L77.9239 218.293C79.2942 219.8 80.0912 221.876 80.1398 224.064C80.1884 226.252 79.4845 228.373 78.1829 229.96Z" fill="white"/>
<path opacity="0.5" d="M131.044 139.491L114.034 160.37C113.753 160.716 113.767 161.259 114.065 161.585L120.237 168.322C120.535 168.647 121.005 168.631 121.286 168.286L138.296 147.407C138.578 147.062 138.564 146.518 138.266 146.193L132.093 139.455C131.795 139.13 131.326 139.146 131.044 139.491Z" fill="white"/>
<g opacity="0.5">
<path d="M83.5239 235.794C82.2329 237.379 80.6848 238.654 78.968 239.547C77.2512 240.439 75.3993 240.931 73.5181 240.995C71.6369 241.059 69.7633 240.694 68.0042 239.919C66.2451 239.145 64.635 237.977 63.2659 236.483L58.6179 231.41C57.2485 229.916 56.1468 228.124 55.3757 226.137C54.6046 224.15 54.1793 222.006 54.1241 219.829C54.0688 217.651 54.3847 215.483 55.0537 213.446C55.7226 211.41 56.7316 209.547 58.0229 207.962C59.315 206.37 60.8658 205.09 62.5864 204.194C64.307 203.297 66.1634 202.803 68.0494 202.739C69.9353 202.675 71.8136 203.043 73.5766 203.821C75.3395 204.599 76.9525 205.772 78.3229 207.273L82.9639 212.345C84.3309 213.842 85.4298 215.636 86.1978 217.625C86.9658 219.614 87.3879 221.758 87.4399 223.935C87.4919 226.113 87.1728 228.281 86.5009 230.315C85.829 232.35 84.8174 234.212 83.5239 235.794Z" fill="white"/>
<path d="M78.1829 229.96C77.5406 230.75 76.77 231.386 75.9153 231.831C75.0606 232.276 74.1386 232.521 73.2018 232.554C72.265 232.586 71.3319 232.404 70.4558 232.019C69.5797 231.634 68.7778 231.053 68.0959 230.309L63.6999 225.447C63.018 224.703 62.4694 223.811 62.0855 222.821C61.7017 221.831 61.49 220.764 61.4627 219.68C61.4354 218.595 61.593 217.515 61.9264 216.502C62.2598 215.488 62.7626 214.56 63.4059 213.771C64.0476 212.981 64.8178 212.346 65.6722 211.901C66.5266 211.456 67.4484 211.211 68.3849 211.179C69.3213 211.147 70.254 211.33 71.1293 211.717C72.0046 212.103 72.8055 212.686 73.4859 213.431L77.9239 218.293C79.2942 219.8 80.0912 221.876 80.1398 224.064C80.1884 226.252 79.4845 228.373 78.1829 229.96Z" fill="white"/>
</g>
<path opacity="0.2" d="M136.409 144.163L138.271 146.188C138.341 146.268 138.397 146.363 138.435 146.469C138.473 146.574 138.492 146.686 138.492 146.8C138.492 146.914 138.473 147.027 138.435 147.132C138.397 147.237 138.341 147.332 138.271 147.412L121.261 168.284C121.193 168.365 121.111 168.429 121.021 168.473C120.931 168.517 120.834 168.539 120.736 168.539C120.638 168.539 120.541 168.517 120.451 168.473C120.361 168.429 120.279 168.365 120.211 168.284L118.356 166.258C118.495 166.417 118.682 166.506 118.877 166.506C119.073 166.506 119.26 166.417 119.399 166.258L136.409 145.378C136.479 145.299 136.534 145.204 136.572 145.1C136.61 144.996 136.63 144.884 136.63 144.77C136.63 144.657 136.61 144.545 136.572 144.441C136.534 144.336 136.479 144.242 136.409 144.163Z" fill="black"/>
<g opacity="0.2">
<path d="M72.0998 211.932L73.4998 213.447C72.1088 212.055 70.3075 211.338 68.4712 211.446C66.6349 211.553 64.9051 212.476 63.642 214.022C62.379 215.569 61.68 217.62 61.6908 219.748C61.7015 221.876 62.4212 223.918 63.6998 225.447L62.2998 223.924C60.9232 222.419 60.1192 220.344 60.0647 218.153C60.0102 215.963 60.7097 213.837 62.0093 212.244C63.3089 210.651 65.102 209.72 66.9944 209.657C68.8867 209.594 70.7232 210.403 72.0998 211.908V211.932Z" fill="black"/>
<path d="M81.5428 210.862L82.9428 212.386C85.6207 215.429 87.1611 219.566 87.2331 223.909C87.3052 228.251 85.9033 232.454 83.3284 235.614C80.7534 238.773 77.2108 240.638 73.461 240.809C69.7113 240.979 66.0534 239.44 63.2728 236.523L61.8728 235.008C64.6442 237.993 68.3233 239.589 72.1072 239.446C75.8911 239.303 79.4726 237.433 82.0699 234.245C84.6672 231.057 86.0695 226.809 85.9708 222.428C85.872 218.047 84.2802 213.89 81.5428 210.862Z" fill="black"/>
</g>
<g opacity="0.2">
<path d="M72.0998 211.932L73.4998 213.447C72.1088 212.055 70.3075 211.338 68.4712 211.446C66.6349 211.553 64.9051 212.476 63.642 214.022C62.379 215.569 61.68 217.62 61.6908 219.748C61.7015 221.876 62.4212 223.918 63.6998 225.447L62.2998 223.924C60.9232 222.419 60.1192 220.344 60.0647 218.153C60.0102 215.963 60.7097 213.837 62.0093 212.244C63.3089 210.651 65.102 209.72 66.9944 209.657C68.8867 209.594 70.7232 210.403 72.0998 211.908V211.932Z" fill="black"/>
<path d="M72.0998 211.932L73.4998 213.447C72.1088 212.055 70.3075 211.338 68.4712 211.446C66.6349 211.553 64.9051 212.476 63.642 214.022C62.379 215.569 61.68 217.62 61.6908 219.748C61.7015 221.876 62.4212 223.918 63.6998 225.447L62.2998 223.924C60.9232 222.419 60.1192 220.344 60.0647 218.153C60.0102 215.963 60.7097 213.837 62.0093 212.244C63.3089 210.651 65.102 209.72 66.9944 209.657C68.8867 209.594 70.7232 210.403 72.0998 211.908V211.932Z" fill="black"/>
</g>
<path d="M61.4459 212.653L66.5909 211.162L66.0169 206.811L59.7449 208.278L61.4459 212.653Z" fill="#B55B52"/>
<path d="M60.9419 202.582L59.7449 208.253L66.0449 206.787C66.0449 206.787 66.1289 201.69 63.7909 201.358L60.9419 202.582Z" fill="#B55B52"/>
</svg>
