<svg width="16" height="16" viewBox="0 0 16 16" fill="none" xmlns="http://www.w3.org/2000/svg">
<path d="M2.16667 3.83332C2.16667 3.14296 2.72631 2.58332 3.41667 2.58332C4.10702 2.58332 4.66667 3.14296 4.66667 3.83332C4.66667 4.52368 4.10702 5.08332 3.41667 5.08332C2.72631 5.08332 2.16667 4.52368 2.16667 3.83332ZM3.41667 0.916656C1.80583 0.916656 0.5 2.22249 0.5 3.83332C0.5 5.44416 1.80583 6.74999 3.41667 6.74999C5.0275 6.74999 6.33333 5.44416 6.33333 3.83332C6.33333 2.22249 5.0275 0.916656 3.41667 0.916656ZM8 4.66666H14.6667V2.99999H8V4.66666ZM11.3333 12.1667C11.3333 11.4763 11.893 10.9167 12.5833 10.9167C13.2737 10.9167 13.8333 11.4763 13.8333 12.1667C13.8333 12.857 13.2737 13.4167 12.5833 13.4167C11.893 13.4167 11.3333 12.857 11.3333 12.1667ZM12.5833 9.24999C10.9725 9.24999 9.66667 10.5558 9.66667 12.1667C9.66667 13.7775 10.9725 15.0833 12.5833 15.0833C14.1942 15.0833 15.5 13.7775 15.5 12.1667C15.5 10.5558 14.1942 9.24999 12.5833 9.24999ZM1.33333 11.3333V13H8V11.3333H1.33333Z" fill="black"/>
</svg>
