<svg width="114" height="100" viewBox="0 0 114 100" fill="none" xmlns="http://www.w3.org/2000/svg">
<path d="M1.918 84.969C2.03933 84.969 2.128 84.9853 2.184 85.018C2.24467 85.046 2.31233 85.1067 2.387 85.2L8.197 92.76C8.183 92.6387 8.17367 92.522 8.169 92.41C8.16433 92.2933 8.162 92.1813 8.162 92.074V84.969H9.352V95H8.666C8.55867 95 8.46767 94.9813 8.393 94.944C8.323 94.9067 8.253 94.8437 8.183 94.755L2.38 87.202C2.38933 87.3187 2.39633 87.433 2.401 87.545C2.40567 87.657 2.408 87.7597 2.408 87.853V95H1.218V84.969H1.918ZM14.574 87.797C15.092 87.797 15.5587 87.8833 15.974 88.056C16.394 88.2287 16.7487 88.4737 17.038 88.791C17.332 89.1083 17.556 89.4933 17.71 89.946C17.8687 90.394 17.948 90.8957 17.948 91.451C17.948 92.011 17.8687 92.515 17.71 92.963C17.556 93.411 17.332 93.7937 17.038 94.111C16.7487 94.4283 16.394 94.6733 15.974 94.846C15.5587 95.014 15.092 95.098 14.574 95.098C14.056 95.098 13.587 95.014 13.167 94.846C12.7517 94.6733 12.397 94.4283 12.103 94.111C11.809 93.7937 11.5827 93.411 11.424 92.963C11.2654 92.515 11.186 92.011 11.186 91.451C11.186 90.8957 11.2654 90.394 11.424 89.946C11.5827 89.4933 11.809 89.1083 12.103 88.791C12.397 88.4737 12.7517 88.2287 13.167 88.056C13.587 87.8833 14.056 87.797 14.574 87.797ZM14.574 94.125C15.274 94.125 15.7967 93.8917 16.142 93.425C16.4874 92.9537 16.66 92.298 16.66 91.458C16.66 90.6133 16.4874 89.9553 16.142 89.484C15.7967 89.0127 15.274 88.777 14.574 88.777C14.2194 88.777 13.9114 88.8377 13.65 88.959C13.3887 89.0803 13.1694 89.2553 12.992 89.484C12.8194 89.7127 12.6887 89.995 12.6 90.331C12.516 90.6623 12.474 91.038 12.474 91.458C12.474 91.878 12.516 92.2537 12.6 92.585C12.6887 92.9163 12.8194 93.1963 12.992 93.425C13.1694 93.649 13.3887 93.8217 13.65 93.943C13.9114 94.0643 14.2194 94.125 14.574 94.125ZM27.7244 86.537C27.6824 86.607 27.638 86.6607 27.5914 86.698C27.5447 86.7307 27.484 86.747 27.4094 86.747C27.33 86.747 27.2367 86.7073 27.1294 86.628C27.0267 86.5487 26.8937 86.4623 26.7304 86.369C26.5717 86.271 26.378 86.1823 26.1494 86.103C25.9254 86.0237 25.6524 85.984 25.3304 85.984C25.027 85.984 24.7587 86.026 24.5254 86.11C24.292 86.1893 24.096 86.299 23.9374 86.439C23.7834 86.579 23.6667 86.7447 23.5874 86.936C23.508 87.1227 23.4684 87.3257 23.4684 87.545C23.4684 87.825 23.536 88.0583 23.6714 88.245C23.8114 88.427 23.9934 88.5833 24.2174 88.714C24.446 88.8447 24.7027 88.959 24.9874 89.057C25.2767 89.1503 25.5707 89.2483 25.8694 89.351C26.1727 89.4537 26.4667 89.5703 26.7514 89.701C27.0407 89.827 27.2974 89.988 27.5214 90.184C27.75 90.38 27.932 90.6203 28.0674 90.905C28.2074 91.1897 28.2774 91.5397 28.2774 91.955C28.2774 92.3937 28.2027 92.8067 28.0534 93.194C27.904 93.5767 27.6847 93.9103 27.3954 94.195C27.1107 94.4797 26.7584 94.7037 26.3384 94.867C25.923 95.0303 25.4494 95.112 24.9174 95.112C24.2687 95.112 23.676 94.9953 23.1394 94.762C22.6074 94.524 22.1524 94.2043 21.7744 93.803L22.1664 93.159C22.2037 93.1077 22.248 93.0657 22.2994 93.033C22.3554 92.9957 22.416 92.977 22.4814 92.977C22.5794 92.977 22.6914 93.0307 22.8174 93.138C22.9434 93.2407 23.0997 93.355 23.2864 93.481C23.4777 93.607 23.7064 93.7237 23.9724 93.831C24.243 93.9337 24.572 93.985 24.9594 93.985C25.2814 93.985 25.5684 93.9407 25.8204 93.852C26.0724 93.7633 26.2847 93.6397 26.4574 93.481C26.6347 93.3177 26.77 93.124 26.8634 92.9C26.9567 92.676 27.0034 92.4263 27.0034 92.151C27.0034 91.8477 26.9334 91.6003 26.7934 91.409C26.658 91.213 26.4784 91.0497 26.2544 90.919C26.0304 90.7883 25.7737 90.6787 25.4844 90.59C25.1997 90.4967 24.9057 90.4033 24.6024 90.31C24.3037 90.212 24.0097 90.1 23.7204 89.974C23.4357 89.848 23.1814 89.6847 22.9574 89.484C22.7334 89.2833 22.5514 89.0337 22.4114 88.735C22.276 88.4317 22.2084 88.0583 22.2084 87.615C22.2084 87.2603 22.276 86.9173 22.4114 86.586C22.5514 86.2547 22.752 85.9607 23.0134 85.704C23.2747 85.4473 23.5967 85.242 23.9794 85.088C24.3667 84.934 24.81 84.857 25.3094 84.857C25.8694 84.857 26.3804 84.9457 26.8424 85.123C27.3044 85.3003 27.708 85.557 28.0534 85.893L27.7244 86.537ZM32.7212 87.797C33.1459 87.797 33.5379 87.8693 33.8972 88.014C34.2565 88.154 34.5669 88.3593 34.8282 88.63C35.0895 88.896 35.2925 89.2273 35.4372 89.624C35.5865 90.016 35.6612 90.464 35.6612 90.968C35.6612 91.164 35.6402 91.2947 35.5982 91.36C35.5562 91.4253 35.4769 91.458 35.3602 91.458H30.6422C30.6515 91.906 30.7122 92.2957 30.8242 92.627C30.9362 92.9583 31.0902 93.236 31.2862 93.46C31.4822 93.6793 31.7155 93.845 31.9862 93.957C32.2569 94.0643 32.5602 94.118 32.8962 94.118C33.2089 94.118 33.4772 94.083 33.7012 94.013C33.9299 93.9383 34.1259 93.859 34.2892 93.775C34.4525 93.691 34.5879 93.614 34.6952 93.544C34.8072 93.4693 34.9029 93.432 34.9822 93.432C35.0849 93.432 35.1642 93.4717 35.2202 93.551L35.5702 94.006C35.4162 94.1927 35.2319 94.356 35.0172 94.496C34.8025 94.6313 34.5715 94.7433 34.3242 94.832C34.0815 94.9207 33.8295 94.986 33.5682 95.028C33.3069 95.0747 33.0479 95.098 32.7912 95.098C32.3012 95.098 31.8485 95.0163 31.4332 94.853C31.0225 94.685 30.6655 94.4423 30.3622 94.125C30.0635 93.803 29.8302 93.4063 29.6622 92.935C29.4942 92.4637 29.4102 91.9223 29.4102 91.311C29.4102 90.8163 29.4849 90.3543 29.6342 89.925C29.7882 89.4957 30.0075 89.1247 30.2922 88.812C30.5769 88.4947 30.9245 88.2473 31.3352 88.07C31.7459 87.888 32.2079 87.797 32.7212 87.797ZM32.7492 88.714C32.1472 88.714 31.6735 88.889 31.3282 89.239C30.9829 89.5843 30.7682 90.065 30.6842 90.681H34.5412C34.5412 90.3917 34.5015 90.128 34.4222 89.89C34.3429 89.6473 34.2262 89.4397 34.0722 89.267C33.9182 89.0897 33.7292 88.9543 33.5052 88.861C33.2859 88.763 33.0339 88.714 32.7492 88.714ZM42.564 95H42.011C41.8897 95 41.7917 94.9813 41.717 94.944C41.6423 94.9067 41.5933 94.8273 41.57 94.706L41.43 94.048C41.2433 94.216 41.0613 94.3677 40.884 94.503C40.7067 94.6337 40.52 94.7457 40.324 94.839C40.128 94.9277 39.918 94.9953 39.694 95.042C39.4747 95.0887 39.2297 95.112 38.959 95.112C38.6837 95.112 38.4247 95.0747 38.182 95C37.944 94.9207 37.7363 94.804 37.559 94.65C37.3817 94.496 37.2393 94.3023 37.132 94.069C37.0293 93.831 36.978 93.551 36.978 93.229C36.978 92.949 37.055 92.6807 37.209 92.424C37.363 92.1627 37.6103 91.9317 37.951 91.731C38.2963 91.5303 38.7467 91.367 39.302 91.241C39.8573 91.1103 40.5363 91.0357 41.339 91.017V90.464C41.339 89.9133 41.22 89.498 40.982 89.218C40.7487 88.9333 40.401 88.791 39.939 88.791C39.6357 88.791 39.379 88.8307 39.169 88.91C38.9637 88.9847 38.784 89.071 38.63 89.169C38.4807 89.2623 38.35 89.3487 38.238 89.428C38.1307 89.5027 38.0233 89.54 37.916 89.54C37.832 89.54 37.7573 89.519 37.692 89.477C37.6313 89.4303 37.5823 89.3743 37.545 89.309L37.321 88.91C37.713 88.532 38.1353 88.2497 38.588 88.063C39.0407 87.8763 39.5423 87.783 40.093 87.783C40.4897 87.783 40.842 87.8483 41.15 87.979C41.458 88.1097 41.717 88.2917 41.927 88.525C42.137 88.7583 42.2957 89.0407 42.403 89.372C42.5103 89.7033 42.564 90.0673 42.564 90.464V95ZM39.33 94.237C39.5493 94.237 39.75 94.216 39.932 94.174C40.114 94.1273 40.2843 94.0643 40.443 93.985C40.6063 93.901 40.7603 93.8007 40.905 93.684C41.0543 93.5673 41.199 93.4343 41.339 93.285V91.808C40.765 91.8267 40.2773 91.8733 39.876 91.948C39.4747 92.018 39.148 92.1113 38.896 92.228C38.644 92.3447 38.4597 92.4823 38.343 92.641C38.231 92.7997 38.175 92.977 38.175 93.173C38.175 93.3597 38.2053 93.5207 38.266 93.656C38.3267 93.7913 38.4083 93.9033 38.511 93.992C38.6137 94.076 38.735 94.139 38.875 94.181C39.015 94.2183 39.1667 94.237 39.33 94.237ZM44.5517 95V87.909H45.2657C45.401 87.909 45.4944 87.9347 45.5457 87.986C45.597 88.0373 45.632 88.126 45.6507 88.252L45.7347 89.358C45.9774 88.8633 46.276 88.4783 46.6307 88.203C46.99 87.923 47.41 87.783 47.8907 87.783C48.0867 87.783 48.264 87.8063 48.4227 87.853C48.5814 87.895 48.7284 87.9557 48.8637 88.035L48.7027 88.966C48.67 89.0827 48.5977 89.141 48.4857 89.141C48.4204 89.141 48.32 89.12 48.1847 89.078C48.0494 89.0313 47.8604 89.008 47.6177 89.008C47.1837 89.008 46.8197 89.134 46.5257 89.386C46.2364 89.638 45.9937 90.0043 45.7977 90.485V95H44.5517ZM55.1352 89.169C55.0978 89.2203 55.0605 89.26 55.0232 89.288C54.9858 89.316 54.9322 89.33 54.8622 89.33C54.7922 89.33 54.7152 89.302 54.6312 89.246C54.5518 89.1853 54.4492 89.12 54.3232 89.05C54.1972 88.98 54.0432 88.917 53.8612 88.861C53.6838 88.8003 53.4645 88.77 53.2032 88.77C52.8578 88.77 52.5522 88.833 52.2862 88.959C52.0202 89.0803 51.7962 89.2577 51.6142 89.491C51.4368 89.7243 51.3015 90.0067 51.2082 90.338C51.1195 90.6693 51.0752 91.0403 51.0752 91.451C51.0752 91.8803 51.1242 92.263 51.2222 92.599C51.3202 92.9303 51.4578 93.2103 51.6352 93.439C51.8125 93.663 52.0272 93.8357 52.2792 93.957C52.5358 94.0737 52.8228 94.132 53.1402 94.132C53.4435 94.132 53.6932 94.097 53.8892 94.027C54.0852 93.9523 54.2485 93.8707 54.3792 93.782C54.5098 93.6933 54.6172 93.614 54.7012 93.544C54.7852 93.4693 54.8692 93.432 54.9532 93.432C55.0605 93.432 55.1398 93.4717 55.1912 93.551L55.5412 94.006C55.2332 94.384 54.8482 94.6617 54.3862 94.839C53.9242 95.0117 53.4365 95.098 52.9232 95.098C52.4798 95.098 52.0668 95.0163 51.6842 94.853C51.3062 94.6897 50.9772 94.454 50.6972 94.146C50.4172 93.8333 50.1955 93.4507 50.0322 92.998C49.8735 92.5453 49.7942 92.0297 49.7942 91.451C49.7942 90.9237 49.8665 90.436 50.0112 89.988C50.1605 89.54 50.3752 89.155 50.6552 88.833C50.9398 88.5063 51.2898 88.252 51.7052 88.07C52.1205 87.888 52.5965 87.797 53.1332 87.797C53.6278 87.797 54.0665 87.8787 54.4492 88.042C54.8318 88.2007 55.1702 88.427 55.4642 88.721L55.1352 89.169ZM56.9333 95V84.689H58.1793V88.861C58.4827 88.539 58.8187 88.2823 59.1873 88.091C59.556 87.895 59.9807 87.797 60.4613 87.797C60.8487 87.797 61.1893 87.8623 61.4833 87.993C61.782 88.119 62.0293 88.301 62.2253 88.539C62.426 88.7723 62.5777 89.0547 62.6803 89.386C62.783 89.7173 62.8343 90.0837 62.8343 90.485V95H61.5883V90.485C61.5883 89.9483 61.4647 89.533 61.2173 89.239C60.9747 88.9403 60.6013 88.791 60.0973 88.791C59.7287 88.791 59.3833 88.8797 59.0613 89.057C58.744 89.2343 58.45 89.4747 58.1793 89.778V95H56.9333ZM75.9497 95H74.5847V90.436H69.1807V95H67.8157V84.969H69.1807V89.442H74.5847V84.969H75.9497V95ZM79.6877 87.909V95H78.4417V87.909H79.6877ZM79.9677 85.683C79.9677 85.8043 79.942 85.9187 79.8907 86.026C79.844 86.1287 79.7787 86.222 79.6947 86.306C79.6154 86.3853 79.522 86.4483 79.4147 86.495C79.3074 86.5417 79.193 86.565 79.0717 86.565C78.9504 86.565 78.836 86.5417 78.7287 86.495C78.626 86.4483 78.5327 86.3853 78.4487 86.306C78.3694 86.222 78.3064 86.1287 78.2597 86.026C78.213 85.9187 78.1897 85.8043 78.1897 85.683C78.1897 85.5617 78.213 85.4473 78.2597 85.34C78.3064 85.228 78.3694 85.1323 78.4487 85.053C78.5327 84.969 78.626 84.9037 78.7287 84.857C78.836 84.8103 78.9504 84.787 79.0717 84.787C79.193 84.787 79.3074 84.8103 79.4147 84.857C79.522 84.9037 79.6154 84.969 79.6947 85.053C79.7787 85.1323 79.844 85.228 79.8907 85.34C79.942 85.4473 79.9677 85.5617 79.9677 85.683ZM86.0437 89.078C85.9877 89.1807 85.9014 89.232 85.7847 89.232C85.7147 89.232 85.6354 89.2063 85.5467 89.155C85.458 89.1037 85.3484 89.0477 85.2177 88.987C85.0917 88.9217 84.94 88.8633 84.7627 88.812C84.5854 88.756 84.3754 88.728 84.1327 88.728C83.9227 88.728 83.7337 88.756 83.5657 88.812C83.3977 88.8633 83.253 88.9357 83.1317 89.029C83.015 89.1223 82.924 89.232 82.8587 89.358C82.798 89.4793 82.7677 89.6123 82.7677 89.757C82.7677 89.939 82.819 90.0907 82.9217 90.212C83.029 90.3333 83.169 90.4383 83.3417 90.527C83.5144 90.6157 83.7104 90.695 83.9297 90.765C84.149 90.8303 84.373 90.9027 84.6017 90.982C84.835 91.0567 85.0614 91.1407 85.2807 91.234C85.5 91.3273 85.696 91.444 85.8687 91.584C86.0414 91.724 86.179 91.8967 86.2817 92.102C86.389 92.3027 86.4427 92.5453 86.4427 92.83C86.4427 93.1567 86.3844 93.46 86.2677 93.74C86.151 94.0153 85.9784 94.2557 85.7497 94.461C85.521 94.6617 85.241 94.8203 84.9097 94.937C84.5784 95.0537 84.1957 95.112 83.7617 95.112C83.267 95.112 82.819 95.0327 82.4177 94.874C82.0164 94.7107 81.6757 94.503 81.3957 94.251L81.6897 93.775C81.727 93.7143 81.7714 93.6677 81.8227 93.635C81.874 93.6023 81.9417 93.586 82.0257 93.586C82.1097 93.586 82.1984 93.6187 82.2917 93.684C82.385 93.7493 82.497 93.8217 82.6277 93.901C82.763 93.9803 82.924 94.0527 83.1107 94.118C83.302 94.1833 83.54 94.216 83.8247 94.216C84.0674 94.216 84.2797 94.1857 84.4617 94.125C84.6437 94.0597 84.7954 93.9733 84.9167 93.866C85.038 93.7587 85.1267 93.635 85.1827 93.495C85.2434 93.355 85.2737 93.2057 85.2737 93.047C85.2737 92.851 85.22 92.69 85.1127 92.564C85.01 92.4333 84.8724 92.3237 84.6997 92.235C84.527 92.1417 84.3287 92.0623 84.1047 91.997C83.8854 91.927 83.659 91.8547 83.4257 91.78C83.197 91.7053 82.9707 91.6213 82.7467 91.528C82.5274 91.43 82.3314 91.3087 82.1587 91.164C81.986 91.0193 81.846 90.842 81.7387 90.632C81.636 90.4173 81.5847 90.1583 81.5847 89.855C81.5847 89.5843 81.6407 89.3253 81.7527 89.078C81.8647 88.826 82.028 88.6067 82.2427 88.42C82.4574 88.2287 82.721 88.077 83.0337 87.965C83.3464 87.853 83.7034 87.797 84.1047 87.797C84.5714 87.797 84.989 87.8717 85.3577 88.021C85.731 88.1657 86.053 88.3663 86.3237 88.623L86.0437 89.078ZM90.303 95.112C89.743 95.112 89.3114 94.9557 89.008 94.643C88.7094 94.3303 88.56 93.88 88.56 93.292V88.952H87.706C87.6314 88.952 87.5684 88.931 87.517 88.889C87.4657 88.8423 87.44 88.7723 87.44 88.679V88.182L88.602 88.035L88.889 85.844C88.8984 85.774 88.9287 85.718 88.98 85.676C89.0314 85.6293 89.0967 85.606 89.176 85.606H89.806V88.049H91.836V88.952H89.806V93.208C89.806 93.5067 89.8784 93.7283 90.023 93.873C90.1677 94.0177 90.3544 94.09 90.583 94.09C90.7137 94.09 90.8257 94.0737 90.919 94.041C91.017 94.0037 91.101 93.964 91.171 93.922C91.241 93.88 91.2994 93.8427 91.346 93.81C91.3974 93.7727 91.4417 93.754 91.479 93.754C91.5444 93.754 91.6027 93.7937 91.654 93.873L92.018 94.468C91.8034 94.6687 91.5444 94.8273 91.241 94.944C90.9377 95.056 90.625 95.112 90.303 95.112ZM96.3467 87.797C96.8647 87.797 97.3314 87.8833 97.7467 88.056C98.1667 88.2287 98.5214 88.4737 98.8107 88.791C99.1047 89.1083 99.3287 89.4933 99.4827 89.946C99.6414 90.394 99.7207 90.8957 99.7207 91.451C99.7207 92.011 99.6414 92.515 99.4827 92.963C99.3287 93.411 99.1047 93.7937 98.8107 94.111C98.5214 94.4283 98.1667 94.6733 97.7467 94.846C97.3314 95.014 96.8647 95.098 96.3467 95.098C95.8287 95.098 95.3597 95.014 94.9397 94.846C94.5244 94.6733 94.1697 94.4283 93.8757 94.111C93.5817 93.7937 93.3554 93.411 93.1967 92.963C93.038 92.515 92.9587 92.011 92.9587 91.451C92.9587 90.8957 93.038 90.394 93.1967 89.946C93.3554 89.4933 93.5817 89.1083 93.8757 88.791C94.1697 88.4737 94.5244 88.2287 94.9397 88.056C95.3597 87.8833 95.8287 87.797 96.3467 87.797ZM96.3467 94.125C97.0467 94.125 97.5694 93.8917 97.9147 93.425C98.26 92.9537 98.4327 92.298 98.4327 91.458C98.4327 90.6133 98.26 89.9553 97.9147 89.484C97.5694 89.0127 97.0467 88.777 96.3467 88.777C95.992 88.777 95.684 88.8377 95.4227 88.959C95.1614 89.0803 94.942 89.2553 94.7647 89.484C94.592 89.7127 94.4614 89.995 94.3727 90.331C94.2887 90.6623 94.2467 91.038 94.2467 91.458C94.2467 91.878 94.2887 92.2537 94.3727 92.585C94.4614 92.9163 94.592 93.1963 94.7647 93.425C94.942 93.649 95.1614 93.8217 95.4227 93.943C95.684 94.0643 95.992 94.125 96.3467 94.125ZM101.356 95V87.909H102.07C102.205 87.909 102.299 87.9347 102.35 87.986C102.401 88.0373 102.436 88.126 102.455 88.252L102.539 89.358C102.782 88.8633 103.08 88.4783 103.435 88.203C103.794 87.923 104.214 87.783 104.695 87.783C104.891 87.783 105.068 87.8063 105.227 87.853C105.386 87.895 105.533 87.9557 105.668 88.035L105.507 88.966C105.474 89.0827 105.402 89.141 105.29 89.141C105.225 89.141 105.124 89.12 104.989 89.078C104.854 89.0313 104.665 89.008 104.422 89.008C103.988 89.008 103.624 89.134 103.33 89.386C103.041 89.638 102.798 90.0043 102.602 90.485V95H101.356ZM109.181 97.093C109.139 97.1863 109.086 97.261 109.02 97.317C108.96 97.373 108.864 97.401 108.733 97.401H107.809L109.104 94.587L106.178 87.909H107.256C107.364 87.909 107.448 87.937 107.508 87.993C107.569 88.0443 107.613 88.1027 107.641 88.168L109.538 92.634C109.58 92.7367 109.615 92.8393 109.643 92.942C109.676 93.0447 109.704 93.1497 109.727 93.257C109.76 93.1497 109.793 93.0447 109.825 92.942C109.858 92.8393 109.895 92.7343 109.937 92.627L111.778 88.168C111.806 88.0933 111.853 88.0327 111.918 87.986C111.988 87.9347 112.063 87.909 112.142 87.909H113.136L109.181 97.093Z" fill="#A6A6A6"/>
<path d="M37.3125 14.5833L78.1458 55.4166" stroke="#A6A6A6" stroke-width="1.5" stroke-linecap="round" stroke-linejoin="round"/>
<path d="M86.8958 35C86.8958 18.8917 73.8373 5.83331 57.7292 5.83331C41.6209 5.83331 28.5625 18.8917 28.5625 35C28.5625 51.1081 41.6209 64.1666 57.7292 64.1666C73.8373 64.1666 86.8958 51.1081 86.8958 35Z" stroke="#A6A6A6" stroke-width="1.5"/>
</svg>
